<svg width="559" height="389" viewBox="0 0 559 389" fill="none" xmlns="http://www.w3.org/2000/svg">
<path d="M515.571 379.89L516.42 372.233L523.042 372.966L556.122 74.3319L549.5 73.5983L550.371 65.7341L542.92 64.9088L543.769 57.2515L51.8391 2.76007L50.9909 10.4174L43.9545 9.63793L43.0834 17.5022L35.84 16.6998L2.76 315.334L10.0034 316.137L9.15519 323.794L16.1916 324.573L15.4351 331.403L507.365 385.894L508.121 379.065L515.571 379.89Z" fill="#9DD6FF" stroke="#0C0B13" stroke-width="5"/>
<path d="M57.3172 88.1579L50.9016 87.4472L28.8025 286.951L35.218 287.661L34.3698 295.319L41.8202 296.144L41.0637 302.973L488.912 352.582L489.669 345.753L497.533 346.624L498.381 338.966L505.624 339.769L527.724 140.265L520.48 139.463L521.328 131.806L513.464 130.934L514.221 124.105L66.3723 74.4964L65.6158 81.3259L58.1654 80.5006L57.3172 88.1579Z" fill="white" stroke="#0C0B13" stroke-width="6"/>
<path d="M426.509 85.1134L405.193 82.7522L404.298 90.8234L425.615 93.1846L426.509 85.1134Z" fill="#0C0B13"/>
<path d="M499.191 79.5474L506.02 80.3039L505.31 86.7195L511.932 87.4531L512.643 81.0375L520.507 81.9086L519.797 88.3242L511.932 87.4531L511.153 94.4895L519.017 95.3606L518.123 103.432L510.259 102.561L511.153 94.4895L504.53 93.7559L503.636 101.827L496.807 101.071L497.701 92.9994L504.53 93.7559L505.31 86.7195L498.48 85.963L499.191 79.5474Z" fill="#0C0B13"/>
<path fill-rule="evenodd" clip-rule="evenodd" d="M450.242 95.9126L471.765 98.2967L474.15 76.7735L452.626 74.3894L450.242 95.9126ZM458.173 88.6208L458.952 81.5844L466.816 82.4555L466.037 89.492L458.173 88.6208Z" fill="#0C0B13"/>
<path d="M84.5774 209.712L88.6386 173.044L95.774 173.834L94.8668 182.025L100.813 182.684L100.32 187.137L105.077 187.664L104.797 190.193L110.743 190.851L109.903 198.438L103.956 197.779L103.676 200.308L98.9194 199.781L98.3592 204.839L92.413 204.18L91.7128 210.503L84.5774 209.712Z" fill="#1C1D31"/>
<path d="M467.888 254.172L471.949 217.504L464.813 216.713L463.906 224.904L457.96 224.246L457.467 228.699L452.71 228.172L452.43 230.701L446.484 230.043L445.643 237.629L451.59 238.288L451.309 240.816L456.066 241.343L455.506 246.401L461.452 247.06L460.752 253.382L467.888 254.172Z" fill="#1C1D31"/>
<path d="M138.875 212.716L139.274 209.116L135.674 208.717L136.073 205.117L143.283 205.916L142.884 209.516L153.694 210.713L154.892 199.903L140.471 198.306L140.87 194.706L137.27 194.307L138.069 187.097L141.669 187.495L142.067 183.895L160.088 185.891L159.689 189.491L163.29 189.89L162.891 193.49L155.69 192.693L156.089 189.093L145.279 187.895L144.48 195.105L158.891 196.701L158.492 200.302L162.092 200.7L160.895 211.511L157.295 211.112L156.896 214.712L138.875 212.716Z" fill="#1C1D31"/>
<path d="M174.907 216.707L177.7 191.486L168.69 190.488L169.089 186.888L194.31 189.681L193.911 193.281L184.91 192.285L182.117 217.506L174.907 216.707Z" fill="#1C1D31"/>
<path d="M216.135 206.686L216.933 199.476L213.323 199.076L213.722 195.476L210.122 195.077L209.723 198.677L206.123 198.278L205.324 205.489L216.135 206.686ZM196.518 219.101L198.913 197.48L202.513 197.879L202.911 194.278L206.521 194.678L206.92 191.078L217.731 192.275L217.332 195.875L220.932 196.274L220.533 199.874L224.134 200.273L221.739 221.894L214.538 221.096L215.736 210.286L204.925 209.089L203.728 219.899L196.518 219.101Z" fill="#1C1D31"/>
<path d="M247.155 206.477L247.953 199.267L237.143 198.07L236.344 205.28L247.155 206.477ZM227.139 222.492L230.331 193.671L251.952 196.065L251.553 199.666L255.154 200.064L254.355 207.275L250.755 206.876L250.356 210.476L253.956 210.875L252.36 225.285L245.16 224.488L246.756 210.077L235.945 208.88L234.349 223.291L227.139 222.492Z" fill="#1C1D31"/>
<path d="M266.771 226.881L269.564 201.66L260.554 200.663L260.953 197.062L286.174 199.856L285.775 203.456L276.774 202.459L273.981 227.68L266.771 226.881Z" fill="#1C1D31"/>
<path d="M309.993 231.669L310.392 228.068L306.782 227.668L307.181 224.068L303.58 223.669L305.178 209.249L308.778 209.648L309.177 206.048L312.786 206.447L313.185 202.847L327.596 204.443L327.197 208.044L330.797 208.442L330.399 212.043L323.198 211.245L323.597 207.645L316.387 206.846L315.988 210.446L312.388 210.048L310.791 224.468L314.391 224.867L313.992 228.467L321.202 229.266L322.2 220.255L314.99 219.457L315.389 215.856L329.799 217.453L328.004 233.663L309.993 231.669Z" fill="#1C1D31"/>
<path d="M353.021 221.847L353.82 214.636L350.21 214.237L350.608 210.636L347.008 210.238L346.609 213.838L343.009 213.439L342.211 220.649L353.021 221.847ZM333.404 234.261L335.799 212.641L339.399 213.039L339.798 209.439L343.408 209.839L343.807 206.239L354.617 207.436L354.218 211.036L357.819 211.435L357.42 215.035L361.02 215.434L358.625 237.055L351.425 236.257L352.622 225.447L341.812 224.25L340.615 235.06L333.404 234.261Z" fill="#1C1D31"/>
<path d="M364.026 237.653L367.218 208.832L370.818 209.23L370.419 212.831L374.029 213.23L373.631 216.831L377.231 217.229L376.831 220.839L380.431 221.238L380.831 217.628L384.441 218.028L384.84 214.428L388.44 214.826L388.839 211.226L392.439 211.625L389.247 240.446L382.046 239.649L383.642 225.238L380.032 224.838L379.634 228.439L376.033 228.04L376.432 224.44L372.832 224.041L371.236 238.451L364.026 237.653Z" fill="#1C1D31"/>
<path d="M394.647 241.044L397.839 212.223L423.06 215.016L422.661 218.617L404.651 216.622L403.852 223.832L414.662 225.029L414.264 228.63L403.453 227.432L402.256 238.243L420.267 240.237L419.868 243.838L394.647 241.044Z" fill="#1C1D31"/>
</svg>
