<svg width="1372" height="1012" viewBox="0 0 1372 1012" fill="none" xmlns="http://www.w3.org/2000/svg">
<path d="M1351.13 988.459V964.999H1368.52V50.0543H1351.13V25.9601H1331.57V2.5H39.9922V25.9601H21.5178V50.0543H2.5V964.999H21.5178V988.459H39.9922V1009.38H1331.57V988.459H1351.13Z" fill="#FFF158" stroke="#0C0B13" stroke-width="5"/>
<path d="M61.502 152.622H44.1233V900.455H61.502V929.158H81.6838V954.758H1294.83V929.158H1316.14V900.455H1335.76V152.622H1316.14V123.919H1294.83V98.3188H81.6838V123.919H61.502V152.622Z" fill="white" stroke="#0C0B13" stroke-width="6"/>
<path d="M1128.56 53.8759H1091.02V68.0891H1128.56V53.8759Z" fill="#0C0B13"/>
<path d="M1253.93 30.1873H1265.95V41.4849H1277.62V30.1873H1291.46V41.4849H1277.62V53.8759H1291.46V68.0891H1277.62V53.8759H1265.95V68.0891H1253.93V53.8759H1265.95V41.4849H1253.93V30.1873Z" fill="#0C0B13"/>
<path fill-rule="evenodd" clip-rule="evenodd" d="M1171.93 68.0891H1209.83V30.1873H1171.93V68.0891ZM1184.32 53.8759V41.4849H1198.17V53.8759H1184.32Z" fill="#0C0B13"/>
</svg>
