<svg width="257" height="165" viewBox="0 0 257 165" fill="none" xmlns="http://www.w3.org/2000/svg">
<path d="M251.292 158.371V154.662H254.5V10.0179H251.292V6.20883H247.684V2.5H9.41647V6.20883H6.00835V10.0179H2.5V154.662H6.00835V158.371H9.41647V161.679H247.684V158.371H251.292Z" fill="#9DD6FF" stroke="#0C0B13" stroke-width="5"/>
<path d="M16.5636 43.0711H13.4562V139.701H16.5636V143.41H20.1722V146.718H237.089V143.41H240.898V139.701H244.406V43.0711H240.898V39.3623H237.089V36.0544H20.1722V39.3623H16.5636V43.0711Z" fill="white" stroke="#0C0B13" stroke-width="6"/>
<path d="M193.054 22.0465H182.729V25.9558H193.054V22.0465Z" fill="#0C0B13"/>
<path d="M227.536 15.531H230.844V18.6384H234.052V15.531H237.861V18.6384H234.052V22.0465H237.861V25.9558H234.052V22.0465H230.844V25.9558H227.536V22.0465H230.844V18.6384H227.536V15.531Z" fill="#0C0B13"/>
<path fill-rule="evenodd" clip-rule="evenodd" d="M204.982 25.9558H215.407V15.531H204.982V25.9558ZM208.391 22.0465V18.6384H212.2V22.0465H208.391Z" fill="#0C0B13"/>
<path fill-rule="evenodd" clip-rule="evenodd" d="M79.8841 67.4758C79.9539 67.4217 80.0397 67.3923 80.128 67.3923H84.9835C85.0732 67.3923 85.1603 67.4227 85.2307 67.4784C85.301 67.5341 85.3505 67.6119 85.371 67.6992L85.9923 70.3383C86.6198 70.5463 87.2215 70.8088 87.7929 71.1205L88.8854 70.3227L89.355 70.9657L88.5378 71.5625C89.034 71.8864 89.5023 72.2489 89.9381 72.6462L90.9448 71.6615C91.0192 71.5887 91.1192 71.548 91.2232 71.548C91.3273 71.548 91.4272 71.5887 91.5016 71.6615L93.0772 73.2029C93.1413 73.2656 93.1824 73.3482 93.1937 73.4372C93.205 73.5262 93.186 73.6164 93.1396 73.6932L92.116 75.3887C92.5304 76.1284 92.8605 76.9211 93.0941 77.7541L94.6413 78.2778L94.3859 79.0321L92.6392 78.4408C92.5766 78.4196 92.5203 78.3832 92.4753 78.3347C92.4303 78.2863 92.398 78.2274 92.3815 78.1634C92.1444 77.2472 91.7816 76.3812 91.3119 75.5844C91.2754 75.5226 91.2563 75.452 91.2567 75.3802C91.2571 75.3083 91.2769 75.238 91.314 75.1765L92.295 73.5516L91.2232 72.5031L88.9119 74.764C90.4152 76.5903 91.0236 77.9778 91.1808 80.2918H95.0672C95.1728 80.2918 95.274 80.3338 95.3487 80.4084C95.4234 80.4831 95.4653 80.5843 95.4653 80.6899V82.9724C95.4653 83.063 95.4344 83.151 95.3776 83.2216C95.3208 83.2923 95.2416 83.3415 95.1531 83.3611L93.0352 83.8293C92.7782 84.6811 92.4206 85.4897 91.9741 86.2397L91.2899 85.8324C91.7412 85.0744 92.0955 84.2529 92.3364 83.3847C92.3557 83.3151 92.3936 83.252 92.4461 83.2023C92.4985 83.1526 92.5635 83.118 92.6341 83.1024L94.6691 82.6526V81.0881H90.8057C90.7033 81.088 90.6047 81.0485 90.5307 80.9777C90.4566 80.907 90.4127 80.8103 90.408 80.708C90.2976 78.2817 89.8366 77.1378 88.3415 75.3219L86.851 76.78C86.7772 76.8522 86.6782 76.8929 86.575 76.8936C86.4718 76.8942 86.3723 76.8547 86.2976 76.7834C85.3192 75.8492 83.9666 75.2722 82.4972 75.2722H82.4971C79.479 75.2722 77.0432 77.6944 77.0432 80.6899C77.0432 83.6854 79.479 86.1075 82.4971 86.1075H82.4972C83.9667 86.1075 85.3192 85.5307 86.2976 84.5965C86.3731 84.5244 86.4739 84.4848 86.5783 84.4863C86.6827 84.4878 86.7823 84.5303 86.8557 84.6045L88.3433 86.1095C89.3549 84.8749 89.6141 84.4996 90.0567 83.1616L90.8127 83.4117C90.3451 84.8252 89.9787 85.3647 88.9055 86.6783L91.5652 89.3691C91.6022 89.4065 91.6314 89.4508 91.6511 89.4996C91.6708 89.5483 91.6807 89.6005 91.6801 89.6531C91.6796 89.7057 91.6686 89.7577 91.6479 89.806C91.6271 89.8544 91.597 89.8981 91.5593 89.9347L89.955 91.4911C89.8904 91.5536 89.8066 91.5925 89.7172 91.6014C89.6278 91.6103 89.538 91.5887 89.4624 91.5401L87.6178 90.3536C87.0914 90.6286 86.5401 90.8621 85.9676 91.0503L85.2749 93.6408C85.2522 93.7255 85.2022 93.8004 85.1327 93.8538C85.0632 93.9072 84.9779 93.9361 84.8903 93.9361H80.0347C79.9448 93.9361 79.8575 93.9057 79.7871 93.8497C79.7166 93.7938 79.6672 93.7156 79.6469 93.628L79.0489 91.0509C78.5274 90.8795 78.0236 90.6705 77.54 90.4268L75.1073 91.8698C75.0319 91.9146 74.9438 91.9331 74.8567 91.9227C74.7697 91.9122 74.6885 91.8733 74.6258 91.812L71.1656 88.4266C71.1009 88.3633 71.0597 88.2797 71.0488 88.1898C71.0379 88.0999 71.058 88.009 71.1058 87.932L72.6306 85.4764C72.4221 85.0525 72.2405 84.6133 72.0879 84.1607L69.3051 83.4419C69.2196 83.4198 69.144 83.3699 69.0899 83.3002C69.0359 83.2304 69.0065 83.1446 69.0065 83.0564V78.2309C69.0065 78.1406 69.0372 78.053 69.0935 77.9825C69.1498 77.9119 69.2285 77.8626 69.3165 77.8426L72.0921 77.2123C72.2299 76.8061 72.391 76.4108 72.5741 76.0276L71.0845 73.5857C71.0384 73.5101 71.0188 73.4213 71.0289 73.3333C71.0389 73.2453 71.0779 73.1632 71.1399 73.0999L74.5252 69.6407C74.5879 69.5766 74.6703 69.5356 74.7592 69.5242C74.8481 69.5129 74.9382 69.5318 75.015 69.578L77.4186 71.0243C77.9432 70.751 78.4924 70.5187 79.0624 70.3312L79.7424 67.6911C79.7645 67.6056 79.8143 67.5299 79.8841 67.4758ZM84.6682 68.1886H82.9477L82.9169 70.1761V72.1577C83.0287 72.1669 83.1362 72.1754 83.2399 72.1835C83.6884 72.2187 84.0668 72.2484 84.4221 72.312C84.9512 72.4068 85.4598 72.5913 86.1581 72.979L85.7715 73.6752C85.1201 73.3134 84.7273 73.1756 84.2817 73.0959C83.9863 73.043 83.6249 73.0141 83.1832 72.9787C83.0962 72.9717 83.0062 72.9645 82.9129 72.9569L82.8988 74.49C84.2841 74.5772 85.5611 75.1111 86.5594 75.9513L89.3676 73.2043C88.8351 72.7231 88.2518 72.2965 87.6257 71.935V71.935C86.9723 71.5579 86.273 71.2511 85.5381 71.0247C85.4717 71.0042 85.4119 70.9668 85.3644 70.916C85.317 70.8653 85.2837 70.803 85.2678 70.7354L84.6682 68.1886ZM86.5546 85.4326C85.5568 86.2704 84.2816 86.8027 82.8986 86.8897L82.9133 88.6485C83.3711 88.6127 84.1084 88.5403 84.5985 88.4037H84.5986C85.3078 88.2061 86.0501 87.833 86.0501 87.833L86.4105 88.543C86.4105 88.543 85.6299 88.9429 84.8124 89.1707H84.8123C84.1844 89.3458 83.3816 89.4191 82.9169 89.4505V91.2053H82.5195L82.9168 91.2149C82.8986 91.9666 82.8791 92.7785 82.8703 93.1399H84.5846L85.2537 90.6381C85.2711 90.5728 85.3049 90.5131 85.3518 90.4645C85.3987 90.4159 85.4571 90.38 85.5217 90.3602C86.1962 90.1537 86.8407 89.8794 87.4475 89.5454C87.5103 89.5108 87.5814 89.4938 87.6531 89.4963C87.7248 89.4987 87.7945 89.5205 87.8549 89.5593L89.6274 90.6995L90.7164 89.643L86.5546 85.4326Z" fill="#0C0B13"/>
<path d="M87.6394 79.1028L88.3943 78.8494C88.3943 78.8494 88.7592 79.8724 88.7689 80.6852C88.7792 81.5479 88.3949 82.6383 88.3949 82.6383L87.6388 82.3887C87.6388 82.3887 87.9797 81.2824 87.9727 80.6947C87.9661 80.141 87.6394 79.1028 87.6394 79.1028Z" fill="#0C0B13"/>
<path d="M89.5604 69.0967C89.0229 69.0967 88.5787 69.5355 88.5787 70.0752C88.5787 70.6148 89.0229 71.0536 89.5604 71.0536C90.098 71.0536 90.5422 70.6148 90.5422 70.0752C90.5422 69.5355 90.098 69.0967 89.5604 69.0967ZM89.5604 69.5491C89.8546 69.5491 90.0898 69.7813 90.0898 70.0752C90.0898 70.369 89.8546 70.6012 89.5604 70.6012C89.2662 70.6012 89.0311 70.369 89.0311 70.0752C89.0311 69.7813 89.2662 69.5491 89.5604 69.5491Z" fill="#0C0B13"/>
<path d="M95.3074 77.6165C94.6644 77.6165 94.1346 78.1402 94.1346 78.7848C94.1346 79.4295 94.6644 79.9532 95.3074 79.9532C95.9506 79.9532 96.4803 79.4294 96.4803 78.7848C96.4803 78.1403 95.9506 77.6165 95.3074 77.6165ZM95.3074 78.0689C95.7074 78.0689 96.0279 78.3861 96.0279 78.7848C96.0279 79.1836 95.7074 79.5008 95.3074 79.5008C94.9077 79.5008 94.587 79.1836 94.587 78.7848C94.587 78.3861 94.9077 78.0689 95.3074 78.0689Z" fill="#0C0B13"/>
<path d="M91.3114 85.5671C90.6684 85.5671 90.1386 86.091 90.1386 86.7355C90.1386 87.3801 90.6685 87.9038 91.3114 87.9038C91.9546 87.9038 92.4843 87.3801 92.4843 86.7355C92.4843 86.091 91.9546 85.5671 91.3114 85.5671ZM91.3114 86.0196C91.7114 86.0196 92.0319 86.3369 92.0319 86.7355C92.0319 87.1343 91.7114 87.4514 91.3114 87.4514C90.9117 87.4514 90.591 87.1343 90.591 86.7355C90.591 86.3369 90.9117 86.0196 91.3114 86.0196Z" fill="#0C0B13"/>
<path d="M86.5919 72.6509C85.9923 72.6509 85.4979 73.1396 85.4979 73.7409C85.4979 74.3422 85.9923 74.831 86.5919 74.831C87.1915 74.831 87.6859 74.3422 87.6859 73.7409C87.6859 73.1396 87.1915 72.6509 86.5919 72.6509ZM86.5919 73.1033C86.9482 73.1033 87.2335 73.3854 87.2335 73.7409C87.2335 74.0964 86.9482 74.3786 86.5919 74.3786C86.2356 74.3786 85.9503 74.0964 85.9503 73.7409C85.9503 73.3854 86.2356 73.1033 86.5919 73.1033Z" fill="#0C0B13"/>
<path d="M87.8743 77.0574C87.2748 77.0574 86.7803 77.5461 86.7803 78.1474C86.7803 78.7487 87.2748 79.2375 87.8743 79.2375C88.4739 79.2375 88.9683 78.7487 88.9683 78.1474C88.9683 77.5461 88.4739 77.0574 87.8743 77.0574ZM87.8743 77.5098C88.2306 77.5098 88.5159 77.7919 88.5159 78.1474C88.5159 78.5029 88.2306 78.7851 87.8743 78.7851C87.518 78.7851 87.2328 78.5029 87.2328 78.1474C87.2328 77.7919 87.518 77.5098 87.8743 77.5098Z" fill="#0C0B13"/>
<path d="M87.8743 82.1331C87.2748 82.1331 86.7803 82.6218 86.7803 83.2231C86.7803 83.8244 87.2748 84.3131 87.8743 84.3131C88.4739 84.3131 88.9683 83.8244 88.9683 83.2231C88.9683 82.6218 88.4739 82.1331 87.8743 82.1331ZM87.8743 82.5855C88.2306 82.5855 88.5159 82.8675 88.5159 83.2231C88.5159 83.5786 88.2306 83.8607 87.8743 83.8607C87.518 83.8607 87.2328 83.5786 87.2328 83.2231C87.2328 82.8676 87.518 82.5855 87.8743 82.5855Z" fill="#0C0B13"/>
<path d="M90.5908 81.6108C90.0556 81.6108 89.6133 82.0478 89.6133 82.5851C89.6133 83.1225 90.0556 83.5594 90.5908 83.5594C91.1261 83.5594 91.5683 83.1225 91.5683 82.5851C91.5683 82.0478 91.1261 81.6108 90.5908 81.6108ZM90.5908 82.0633C90.8828 82.0633 91.1159 82.2935 91.1159 82.5851C91.1159 82.8767 90.8828 83.107 90.5908 83.107C90.2989 83.107 90.0658 82.8767 90.0658 82.5851C90.0658 82.2935 90.2989 82.0633 90.5908 82.0633Z" fill="#0C0B13"/>
<path d="M86.8407 86.8074C86.3055 86.8074 85.8632 87.2443 85.8632 87.7817C85.8632 88.319 86.3055 88.7559 86.8407 88.7559C87.3759 88.7559 87.8182 88.319 87.8182 87.7817C87.8182 87.2443 87.3759 86.8074 86.8407 86.8074ZM86.8407 87.2598C87.1327 87.2598 87.3658 87.4899 87.3658 87.7817C87.3658 88.0732 87.1327 88.3034 86.8407 88.3034C86.5487 88.3034 86.3156 88.0732 86.3156 87.7817C86.3156 87.4899 86.5487 87.2598 86.8407 87.2598Z" fill="#0C0B13"/>
<path d="M104.247 68.4256C105.775 67.7636 107.507 67.4216 109.434 67.3918C109.436 67.3925 109.439 67.3932 109.442 67.3939C109.531 67.3926 109.62 67.3918 109.711 67.3918C111.79 67.3918 113.608 67.7376 115.156 68.4429C116.699 69.1461 117.91 70.1518 118.757 71.4485C119.614 72.7391 120.045 74.255 120.053 75.9588C120.054 76.0112 120.043 76.0632 120.024 76.1117C120.004 76.1602 119.974 76.2044 119.937 76.2415C119.9 76.2787 119.856 76.3082 119.808 76.3284C119.76 76.3485 119.708 76.3589 119.655 76.3589H113.107C113.007 76.3589 112.911 76.3212 112.837 76.2533C112.764 76.1854 112.719 76.0924 112.711 75.9926C112.652 75.2599 112.396 74.746 111.93 74.3588L111.929 74.3578L111.928 74.357C111.488 73.9865 110.763 73.7657 109.711 73.7657C109.622 73.7657 109.536 73.7672 109.453 73.7699C109.451 73.7694 109.448 73.7689 109.446 73.7683C108.896 73.7872 108.451 73.8676 108.116 73.9946C108.115 73.9951 108.114 73.9955 108.113 73.996C107.721 74.1402 107.465 74.3248 107.309 74.5335C107.256 74.6054 107.179 74.657 107.092 74.68C107.005 74.703 106.913 74.6959 106.831 74.66L100.942 72.0886C100.252 73.1489 99.9106 74.3603 99.9178 75.7609C99.9178 75.7617 99.9178 75.7625 99.9178 75.7634L99.9178 75.7646C99.9099 77.6587 100.345 78.791 101.069 79.494L100.514 80.0651C99.5955 79.1732 99.1134 77.7821 99.1215 75.7632C99.1133 74.1014 99.5661 72.6173 100.477 71.3585C100.53 71.2849 100.607 71.2317 100.695 71.2078C100.782 71.1839 100.876 71.1907 100.959 71.227L106.887 73.8154C107.138 73.5745 107.46 73.388 107.836 73.2494C108.187 73.1166 108.589 73.0357 109.042 72.9964V71.0042C107.733 71.1255 106.287 71.6383 105.083 72.2928C105.015 72.3299 104.937 72.3462 104.86 72.3398C104.782 72.3334 104.709 72.3046 104.648 72.2568L102.687 70.725L103.177 70.0975L104.937 71.4726C106.191 70.8222 107.647 70.3176 109.042 70.2044V68.2026C107.576 68.2613 106.251 68.5123 105.063 68.9563C105.11 69.0125 105.146 69.0561 105.18 69.0966C105.23 69.1566 105.275 69.2096 105.339 69.2867L104.728 69.7974C104.483 69.504 104.1 69.0462 104.1 69.0462C104.061 68.9987 104.033 68.9426 104.018 68.8823C104.004 68.822 104.004 68.7593 104.018 68.699C104.033 68.6388 104.061 68.5827 104.101 68.5352C104.14 68.4877 104.191 68.4502 104.247 68.4256Z" fill="#0C0B13"/>
<path d="M104.017 80.1719C102.743 78.8208 101.829 76.7025 101.896 74.8492L102.692 74.8782C102.631 76.5461 103.628 78.7406 104.846 79.8746C104.884 79.9105 104.915 79.9538 104.937 80.0019C104.959 80.0499 104.971 80.1018 104.972 80.1546C104.974 80.2073 104.965 80.2598 104.946 80.309C104.927 80.3583 104.898 80.4032 104.862 80.4413L103.87 81.4772C104.189 81.6235 104.527 81.7585 104.881 81.8834C105.087 81.6365 105.528 81.103 105.847 80.654V80.654C106.06 80.3547 106.292 79.9908 106.458 79.7279C105.437 78.9067 104.903 78.2821 104.658 77.3483L105.428 77.1466C105.639 77.9496 106.03 78.3856 107.123 79.2404H109.041V77.5325H109.042C109.043 77.4723 109.057 77.4129 109.083 77.3589C109.11 77.3049 109.148 77.2577 109.196 77.2207C109.243 77.1837 109.298 77.158 109.357 77.1454C109.416 77.1328 109.477 77.1338 109.536 77.1482C109.724 77.195 109.924 77.24 110.135 77.283C110.136 77.2833 110.137 77.2835 110.138 77.2837L112.205 77.7239C113.624 78.0226 114.848 78.4181 115.878 78.9172C116.904 79.4145 117.756 80.0063 118.427 80.6981C119.094 81.379 119.591 82.1547 119.905 83.015C120.226 83.8689 120.389 84.797 120.398 85.7916C120.398 85.7934 120.398 85.7951 120.398 85.7969C120.389 87.5098 119.953 88.9957 119.08 90.2106C118.21 91.4204 116.965 92.3365 115.382 92.9544L115.381 92.9546C113.804 93.5728 111.93 93.8747 109.76 93.8747C109.65 93.8747 109.542 93.8738 109.434 93.8724C109.431 93.8716 109.429 93.8709 109.426 93.8701L109.326 93.8685C107.352 93.8401 106.736 93.6979 106.19 93.5243L106.431 92.7655C106.913 92.9187 107.362 93.0301 109.041 93.0658V91.0777C108.966 91.0772 108.891 91.0769 108.819 91.0766C108.134 91.0738 107.578 91.0715 107.088 90.981C106.452 90.8634 105.897 90.5701 105.283 89.9963L105.826 89.4145C106.373 89.9249 106.731 90.1054 107.233 90.198C107.622 90.2699 108.158 90.2739 108.852 90.279C108.914 90.2794 108.977 90.2799 109.041 90.2804V88.2705C108.382 88.2197 107.784 88.0855 107.253 87.8593L107.252 87.8588L107.251 87.8586C106.58 87.5689 106.084 87.1771 105.631 86.5365C105.273 86.0294 105.045 85.2754 105.045 85.2754L105.802 85.027C105.802 85.027 106.066 85.7717 106.282 86.0767C106.673 86.6298 106.99 86.8787 107.566 87.127C108.088 87.3494 108.714 87.4758 109.45 87.4957C109.453 87.4965 109.456 87.4972 109.458 87.498C109.525 87.4998 109.593 87.5008 109.661 87.5008C110.359 87.5008 110.926 87.4135 111.359 87.2558C111.8 87.0947 112.105 86.8837 112.304 86.635C112.506 86.3828 112.602 86.1197 112.61 85.7975C112.603 85.5004 112.515 85.2708 112.326 85.052C112.323 85.049 112.321 85.0459 112.318 85.0427C112.143 84.8264 111.806 84.5898 111.293 84.3769C111.292 84.3763 111.29 84.3756 111.288 84.3749C110.817 84.1721 110.168 83.9727 109.351 83.7862C109.263 83.7662 109.185 83.7168 109.128 83.6463C109.072 83.5758 109.041 83.4883 109.041 83.3981V80.0367H107.204C107.067 80.2572 106.774 80.7244 106.496 81.1156V81.1157C106.245 81.4685 105.935 81.8553 105.683 82.1636C106.023 82.2838 106.358 82.3989 106.722 82.4774L106.554 83.2558C106.092 83.156 105.695 83.0143 105.318 82.8797C105.172 82.8275 105.029 82.7763 104.886 82.7291C104.214 82.5069 103.592 82.2474 103.02 81.9499C102.965 81.9214 102.918 81.8805 102.882 81.8304C102.845 81.7804 102.821 81.7226 102.811 81.6616C102.801 81.6006 102.805 81.5381 102.824 81.4791C102.842 81.42 102.874 81.366 102.916 81.3214L104.017 80.1719Z" fill="#0C0B13"/>
<path d="M106.382 76.2451L107.078 75.8584C107.124 75.942 107.634 76.4908 107.836 76.6328L107.379 77.2846C107.024 77.0351 106.598 76.6344 106.382 76.2451Z" fill="#0C0B13"/>
<path d="M98.7268 84.0064C98.7752 83.9863 98.8271 83.9759 98.8795 83.9759H102.129C102.182 83.9759 102.235 83.9866 102.284 84.0072C102.333 84.0279 102.377 84.0582 102.414 84.0963C102.451 84.1344 102.48 84.1795 102.5 84.2291C102.519 84.2786 102.528 84.3315 102.527 84.3846C102.527 84.3846 102.512 85.9502 102.782 86.7362C103.005 87.3866 103.746 88.4427 103.746 88.4427C103.799 88.5159 103.826 88.605 103.821 88.6952C103.817 88.7854 103.782 88.8715 103.722 88.9393L101.972 90.9249C102.056 91.0165 102.147 91.1125 102.218 91.178C102.624 91.5487 103.592 92.0224 103.592 92.0224L103.255 92.7438C103.255 92.7438 102.273 92.3066 101.681 91.766C101.426 91.5326 101.136 91.1823 101.136 91.1823C101.075 91.1093 101.042 91.0168 101.043 90.9214C101.044 90.8261 101.079 90.7343 101.142 90.6628L102.918 88.647C102.674 88.2888 102.241 87.6141 102.029 86.9947C101.777 86.2625 101.732 85.3065 101.727 84.7722H99.2868C99.3315 86.6029 99.627 87.8361 100.129 88.5915L99.4665 89.0324C98.7838 88.0061 98.4899 86.5085 98.4814 84.3756C98.4812 84.3232 98.4913 84.2713 98.5112 84.2228C98.5312 84.1743 98.5605 84.1302 98.5974 84.0931C98.6344 84.0559 98.6784 84.0265 98.7268 84.0064Z" fill="#0C0B13"/>
<path d="M101.15 79.395C100.686 79.395 100.302 79.7743 100.302 80.2404C100.302 80.7066 100.686 81.0858 101.15 81.0858C101.613 81.0858 101.998 80.7066 101.998 80.2404C101.998 79.7742 101.613 79.395 101.15 79.395ZM101.15 79.8474C101.37 79.8474 101.545 80.0201 101.545 80.2404C101.545 80.4608 101.37 80.6334 101.15 80.6334C100.93 80.6334 100.754 80.4609 100.754 80.2404C100.754 80.02 100.93 79.8474 101.15 79.8474Z" fill="#0C0B13"/>
<path d="M107.225 82.1711C106.761 82.1711 106.377 82.5504 106.377 83.0165C106.377 83.4826 106.761 83.8619 107.225 83.8619C107.688 83.8619 108.073 83.4826 108.073 83.0165C108.073 82.5504 107.688 82.1711 107.225 82.1711ZM107.225 82.6236C107.445 82.6236 107.62 82.7961 107.62 83.0165C107.62 83.237 107.445 83.4095 107.225 83.4095C107.004 83.4095 106.829 83.237 106.829 83.0165C106.829 82.7961 107.004 82.6236 107.225 82.6236Z" fill="#0C0B13"/>
<path d="M105.33 83.9434C104.867 83.9434 104.483 84.3226 104.483 84.7888C104.483 85.2549 104.867 85.6341 105.33 85.6341C105.794 85.6341 106.178 85.2549 106.178 84.7888C106.178 84.3226 105.794 83.9434 105.33 83.9434ZM105.33 84.3958C105.551 84.3958 105.726 84.5683 105.726 84.7888C105.726 85.0092 105.551 85.1817 105.33 85.1817C105.11 85.1817 104.935 85.0092 104.935 84.7888C104.935 84.5683 105.11 84.3958 105.33 84.3958Z" fill="#0C0B13"/>
<path d="M105.205 88.5703C104.741 88.5703 104.357 88.9494 104.357 89.4156C104.357 89.8818 104.741 90.2611 105.205 90.2611C105.668 90.2611 106.053 89.8817 106.053 89.4156C106.053 88.9495 105.668 88.5703 105.205 88.5703ZM105.205 89.0227C105.425 89.0227 105.6 89.1951 105.6 89.4156C105.6 89.6361 105.425 89.8087 105.205 89.8087C104.985 89.8087 104.809 89.636 104.809 89.4156C104.809 89.1952 104.985 89.0227 105.205 89.0227Z" fill="#0C0B13"/>
<path d="M100.029 88.3501C99.565 88.3501 99.1808 88.7293 99.1808 89.1954C99.1808 89.6615 99.565 90.0409 100.029 90.0409C100.492 90.0409 100.877 89.6615 100.877 89.1954C100.877 88.7293 100.492 88.3501 100.029 88.3501ZM100.029 88.8025C100.249 88.8025 100.424 88.9749 100.424 89.1954C100.424 89.4159 100.249 89.5885 100.029 89.5885C99.8083 89.5885 99.6333 89.4159 99.6333 89.1954C99.6333 88.9749 99.8083 88.8025 100.029 88.8025Z" fill="#0C0B13"/>
<path d="M103.819 91.8545C103.422 91.8545 103.091 92.1803 103.091 92.5803C103.091 92.9805 103.422 93.3064 103.819 93.3064C104.216 93.3064 104.547 92.9805 104.547 92.5803C104.547 92.1803 104.216 91.8545 103.819 91.8545ZM103.819 92.3069C103.973 92.3069 104.094 92.426 104.094 92.5803C104.094 92.735 103.973 92.854 103.819 92.854C103.665 92.854 103.544 92.735 103.544 92.5803C103.544 92.426 103.665 92.3069 103.819 92.3069Z" fill="#0C0B13"/>
<path d="M105.876 92.2134C105.478 92.2134 105.148 92.5393 105.148 92.9394C105.148 93.3396 105.478 93.6655 105.876 93.6655C106.273 93.6655 106.603 93.3396 106.603 92.9394C106.603 92.5393 106.273 92.2134 105.876 92.2134ZM105.876 92.6658C106.029 92.6658 106.151 92.785 106.151 92.9394C106.151 93.0941 106.029 93.2131 105.876 93.2131C105.722 93.2131 105.6 93.0941 105.6 92.9394C105.6 92.785 105.722 92.6658 105.876 92.6658Z" fill="#0C0B13"/>
<path d="M102.453 68.8594C101.854 68.8594 101.359 69.3481 101.359 69.9494C101.359 70.5507 101.854 71.0395 102.453 71.0395C103.053 71.0395 103.547 70.5507 103.547 69.9494C103.547 69.3481 103.053 68.8594 102.453 68.8594ZM102.453 69.3118C102.81 69.3118 103.095 69.5939 103.095 69.9494C103.095 70.3049 102.81 70.587 102.453 70.587C102.097 70.587 101.812 70.3049 101.812 69.9494C101.812 69.5939 102.097 69.3118 102.453 69.3118Z" fill="#0C0B13"/>
<path d="M105.292 69.2065C104.816 69.2065 104.421 69.596 104.421 70.0747C104.421 70.5535 104.816 70.9429 105.292 70.9429C105.768 70.9429 106.163 70.5535 106.163 70.0747C106.163 69.596 105.768 69.2065 105.292 69.2065ZM105.292 69.659C105.525 69.659 105.71 69.8417 105.71 70.0747C105.71 70.3078 105.525 70.4905 105.292 70.4905C105.059 70.4905 104.874 70.3078 104.874 70.0747C104.874 69.8417 105.059 69.659 105.292 69.659Z" fill="#0C0B13"/>
<path d="M106.548 74.8765C106.128 74.8765 105.78 75.2203 105.78 75.6427C105.78 76.065 106.128 76.4088 106.548 76.4088C106.967 76.4088 107.316 76.065 107.316 75.6427C107.316 75.2203 106.967 74.8765 106.548 74.8765ZM106.548 75.3289C106.724 75.3289 106.863 75.4659 106.863 75.6427C106.863 75.8194 106.724 75.9564 106.548 75.9564C106.371 75.9564 106.232 75.8194 106.232 75.6427C106.232 75.4659 106.371 75.3289 106.548 75.3289Z" fill="#0C0B13"/>
<path d="M107.936 76.4922C107.516 76.4922 107.167 76.836 107.167 77.2584C107.167 77.6807 107.516 78.0246 107.936 78.0246C108.355 78.0246 108.704 77.6807 108.704 77.2584C108.704 76.836 108.355 76.4922 107.936 76.4922ZM107.936 76.9446C108.112 76.9446 108.251 77.0817 108.251 77.2584C108.251 77.4351 108.112 77.5721 107.936 77.5721C107.759 77.5721 107.62 77.4351 107.62 77.2584C107.62 77.0817 107.759 76.9446 107.936 76.9446Z" fill="#0C0B13"/>
<path d="M104.873 75.8477C104.41 75.8477 104.025 76.227 104.025 76.6931C104.025 77.1592 104.41 77.5385 104.873 77.5385C105.337 77.5385 105.721 77.1592 105.721 76.6931C105.721 76.227 105.337 75.8477 104.873 75.8477ZM104.873 76.3001C105.094 76.3001 105.269 76.4726 105.269 76.6931C105.269 76.9135 105.094 77.0861 104.873 77.0861C104.653 77.0861 104.478 76.9135 104.478 76.6931C104.478 76.4726 104.653 76.3001 104.873 76.3001Z" fill="#0C0B13"/>
<path d="M102.317 73.6204C101.853 73.6204 101.469 73.9996 101.469 74.4658C101.469 74.9319 101.853 75.3112 102.317 75.3112C102.781 75.3112 103.165 74.9319 103.165 74.4658C103.165 73.9996 102.781 73.6204 102.317 73.6204ZM102.317 74.0728C102.538 74.0728 102.713 74.2453 102.713 74.4658C102.713 74.6862 102.538 74.8587 102.317 74.8587C102.097 74.8587 101.922 74.6862 101.922 74.4658C101.922 74.2453 102.097 74.0728 102.317 74.0728Z" fill="#0C0B13"/>
<path d="M122.975 67.5087C123.05 67.434 123.151 67.3921 123.257 67.3921H141.474C141.579 67.3921 141.681 67.434 141.755 67.5087C141.83 67.5834 141.872 67.6846 141.872 67.7902V69.15H141.076V68.1884H130.688V68.7519H139.037C139.142 68.7519 139.244 68.7938 139.318 68.8684C139.393 68.943 139.435 69.0441 139.435 69.1497L139.436 70.5213L138.64 70.522L138.639 69.5481H130.688V70.1273H136.755C136.86 70.1273 136.962 70.1692 137.036 70.2439C137.111 70.3186 137.153 70.4198 137.153 70.5254V71.5677H136.357V70.9235H130.688V72.0303H133.224V72.8266H130.688V73.5947H141.076V72.8621H141.872V73.9928C141.872 74.0984 141.83 74.1997 141.755 74.2743C141.681 74.349 141.579 74.391 141.474 74.391H130.688V77.4497H140.371C140.477 77.4497 140.578 77.4917 140.653 77.5664C140.728 77.641 140.769 77.7423 140.77 77.8479V82.455H139.973V78.246H130.688V79.0726H135.557V79.8688H130.688V80.5951H133.782V81.3913H130.688V82.0573L135.693 82.062L135.693 82.8583L130.688 82.8536V83.7404H137.808L137.811 80.4796L138.608 80.4805L138.603 84.139C138.603 84.2445 138.561 84.3457 138.486 84.4202C138.412 84.4948 138.311 84.5366 138.205 84.5367H130.688V93.5377C130.688 93.6433 130.646 93.7446 130.572 93.8193C130.497 93.8939 130.396 93.9359 130.29 93.9359H123.257C123.151 93.9359 123.05 93.8939 122.975 93.8193C122.901 93.7446 122.859 93.6433 122.859 93.5377V67.7902C122.859 67.6846 122.901 67.5834 122.975 67.5087Z" fill="#0C0B13"/>
<path d="M133.862 71.5815C133.399 71.5815 133.016 71.9603 133.016 72.4258C133.016 72.8913 133.399 73.27 133.862 73.27C134.325 73.27 134.709 72.8913 134.709 72.4258C134.709 71.9603 134.325 71.5815 133.862 71.5815ZM133.862 72.034C134.082 72.034 134.257 72.206 134.257 72.4258C134.257 72.6456 134.082 72.8176 133.862 72.8176C133.643 72.8176 133.468 72.6456 133.468 72.4258C133.468 72.206 133.643 72.034 133.862 72.034Z" fill="#0C0B13"/>
<path d="M136.727 71.1521C136.234 71.1521 135.826 71.555 135.826 72.0502C135.826 72.5455 136.234 72.9484 136.727 72.9484C137.22 72.9484 137.627 72.5455 137.627 72.0502C137.627 71.555 137.22 71.1521 136.727 71.1521ZM136.727 71.6045C136.976 71.6045 137.175 71.8006 137.175 72.0502C137.175 72.2998 136.976 72.4959 136.727 72.4959C136.477 72.4959 136.278 72.2998 136.278 72.0502C136.278 71.8006 136.477 71.6045 136.727 71.6045Z" fill="#0C0B13"/>
<path d="M139.011 70.1516C138.488 70.1516 138.056 70.5789 138.056 71.1044C138.056 71.6298 138.488 72.0571 139.011 72.0571C139.535 72.0571 139.967 71.6298 139.967 71.1044C139.967 70.5789 139.535 70.1516 139.011 70.1516ZM139.011 70.604C139.291 70.604 139.515 70.8247 139.515 71.1044C139.515 71.384 139.291 71.6047 139.011 71.6047C138.732 71.6047 138.508 71.384 138.508 71.1044C138.508 70.8247 138.732 70.604 139.011 70.604Z" fill="#0C0B13"/>
<path d="M141.475 68.7029C141.077 68.7029 140.747 69.0287 140.747 69.4289C140.747 69.8291 141.077 70.1549 141.475 70.1549C141.872 70.1549 142.202 69.8292 142.202 69.4289C142.202 69.0286 141.872 68.7029 141.475 68.7029ZM141.475 69.1553C141.628 69.1553 141.75 69.2744 141.75 69.4289C141.75 69.5834 141.628 69.7025 141.475 69.7025C141.321 69.7025 141.199 69.5835 141.199 69.4289C141.199 69.2743 141.321 69.1553 141.475 69.1553Z" fill="#0C0B13"/>
<path d="M141.475 71.6995C141.077 71.6995 140.747 72.0253 140.747 72.4255C140.747 72.8256 141.077 73.1515 141.475 73.1515C141.872 73.1515 142.202 72.8257 142.202 72.4255C142.202 72.0252 141.872 71.6995 141.475 71.6995ZM141.475 72.1519C141.628 72.1519 141.75 72.271 141.75 72.4255C141.75 72.5799 141.628 72.6991 141.475 72.6991C141.321 72.6991 141.199 72.58 141.199 72.4255C141.199 72.2709 141.321 72.1519 141.475 72.1519Z" fill="#0C0B13"/>
<path d="M140.367 82.0317C139.844 82.0317 139.411 82.459 139.411 82.9845C139.411 83.51 139.844 83.9372 140.367 83.9372C140.891 83.9372 141.323 83.5099 141.323 82.9845C141.323 82.4591 140.891 82.0317 140.367 82.0317ZM140.367 82.4842C140.647 82.4842 140.871 82.7047 140.871 82.9845C140.871 83.2642 140.647 83.4848 140.367 83.4848C140.087 83.4848 139.864 83.2641 139.864 82.9845C139.864 82.7048 140.087 82.4842 140.367 82.4842Z" fill="#0C0B13"/>
<path d="M138.195 78.9771C137.671 78.9771 137.239 79.4043 137.239 79.9298C137.239 80.4553 137.671 80.8825 138.195 80.8825C138.718 80.8825 139.15 80.4553 139.15 79.9298C139.15 79.4043 138.718 78.9771 138.195 78.9771ZM138.195 79.4295C138.475 79.4295 138.698 79.6501 138.698 79.9298C138.698 80.2094 138.475 80.4301 138.195 80.4301C137.915 80.4301 137.691 80.2094 137.691 79.9298C137.691 79.6501 137.915 79.4295 138.195 79.4295Z" fill="#0C0B13"/>
<path d="M136.002 78.7034C135.605 78.7034 135.274 79.0292 135.274 79.4294C135.274 79.8296 135.605 80.1554 136.002 80.1554C136.399 80.1554 136.73 79.8296 136.73 79.4294C136.73 79.0292 136.399 78.7034 136.002 78.7034ZM136.002 79.1558C136.156 79.1558 136.277 79.2749 136.277 79.4294C136.277 79.584 136.156 79.703 136.002 79.703C135.848 79.703 135.727 79.584 135.727 79.4294C135.727 79.2749 135.848 79.1558 136.002 79.1558Z" fill="#0C0B13"/>
<path d="M134.137 80.2793C133.74 80.2793 133.409 80.6051 133.409 81.0053C133.409 81.4055 133.74 81.7313 134.137 81.7313C134.534 81.7313 134.865 81.4055 134.865 81.0053C134.865 80.6051 134.534 80.2793 134.137 80.2793ZM134.137 80.7317C134.291 80.7317 134.412 80.8507 134.412 81.0053C134.412 81.1598 134.291 81.2789 134.137 81.2789C133.983 81.2789 133.862 81.1598 133.862 81.0053C133.862 80.8507 133.983 80.7317 134.137 80.7317Z" fill="#0C0B13"/>
<path d="M136.114 81.7583C135.716 81.7583 135.386 82.0842 135.386 82.4843C135.386 82.8845 135.716 83.2104 136.114 83.2104C136.511 83.2104 136.841 82.8845 136.841 82.4843C136.841 82.0842 136.511 81.7583 136.114 81.7583ZM136.114 82.2107C136.268 82.2107 136.389 82.3298 136.389 82.4843C136.389 82.6389 136.268 82.7579 136.114 82.7579C135.959 82.7579 135.838 82.6389 135.838 82.4843C135.838 82.3298 135.959 82.2107 136.114 82.2107Z" fill="#0C0B13"/>
<path d="M146.984 68.167L145.286 68.167C145.18 68.167 145.079 68.209 145.004 68.2837C144.93 68.3583 144.888 68.4596 144.888 68.5652V82.3589V93.4457C144.888 93.5513 144.93 93.6526 145.004 93.7272C145.079 93.8019 145.18 93.8438 145.286 93.8439H152.319C152.425 93.8438 152.526 93.8019 152.601 93.7272C152.676 93.6526 152.717 93.5513 152.717 93.4457V82.3589V68.5652C152.717 68.4596 152.676 68.3583 152.601 68.2837C152.526 68.209 152.425 68.167 152.319 68.167L151.398 68.167V68.9633H151.921V81.9608L150.675 81.9608V78.7404H149.879V81.9608H148.632V74.7838H149.536V73.9876H148.234C148.129 73.9876 148.027 74.0295 147.953 74.1042C147.878 74.1788 147.836 74.2801 147.836 74.3857V81.9608H147.12V71.9687L148.435 71.9676L148.435 71.1713L146.721 71.1727C146.616 71.1728 146.515 71.2148 146.44 71.2894C146.366 71.3641 146.324 71.4653 146.324 71.5708V81.9608L145.684 81.9608V68.9633H146.984L146.984 68.167Z" fill="#0C0B13"/>
<path d="M147.601 67.6506C147.107 67.6506 146.683 68.0468 146.683 68.5527C146.683 69.0586 147.107 69.4547 147.601 69.4547C148.094 69.4547 148.518 69.0586 148.518 68.5527C148.518 68.0468 148.094 67.6506 147.601 67.6506ZM147.601 68.1031C147.856 68.1031 148.066 68.2979 148.066 68.5527C148.066 68.8075 147.856 69.0023 147.601 69.0023C147.345 69.0023 147.136 68.8075 147.136 68.5527C147.136 68.2979 147.345 68.1031 147.601 68.1031Z" fill="#0C0B13"/>
<path d="M148.936 70.7134C148.465 70.7134 148.075 71.0988 148.075 71.5725C148.075 72.0461 148.465 72.4315 148.936 72.4315C149.407 72.4315 149.798 72.0462 149.798 71.5725C149.798 71.0987 149.407 70.7134 148.936 70.7134ZM148.936 71.1658C149.164 71.1658 149.345 71.3445 149.345 71.5725C149.345 71.8004 149.164 71.9791 148.936 71.9791C148.708 71.9791 148.527 71.8004 148.527 71.5725C148.527 71.3445 148.708 71.1658 148.936 71.1658Z" fill="#0C0B13"/>
<path d="M150.259 73.4272C149.751 73.4272 149.331 73.8421 149.331 74.3523C149.331 74.8625 149.751 75.2774 150.259 75.2774C150.767 75.2774 151.187 74.8625 151.187 74.3523C151.187 73.8422 150.767 73.4272 150.259 73.4272ZM150.259 73.8797C150.524 73.8797 150.735 74.0879 150.735 74.3523C150.735 74.6168 150.524 74.825 150.259 74.825C149.995 74.825 149.784 74.6167 149.784 74.3523C149.784 74.0879 149.995 73.8797 150.259 73.8797Z" fill="#0C0B13"/>
<path d="M150.259 77.1365C149.751 77.1365 149.331 77.5514 149.331 78.0615C149.331 78.5717 149.751 78.9866 150.259 78.9866C150.767 78.9866 151.187 78.5717 151.187 78.0615C151.187 77.5514 150.767 77.1365 150.259 77.1365ZM150.259 77.5889C150.524 77.5889 150.735 77.7971 150.735 78.0615C150.735 78.326 150.524 78.5342 150.259 78.5342C149.995 78.5342 149.784 78.326 149.784 78.0615C149.784 77.7971 149.995 77.5889 150.259 77.5889Z" fill="#0C0B13"/>
<path d="M150.706 67.6497C150.213 67.6497 149.788 68.0452 149.788 68.5517C149.788 69.0583 150.213 69.4538 150.706 69.4538C151.199 69.4538 151.624 69.0582 151.624 68.5517C151.624 68.0452 151.199 67.6497 150.706 67.6497ZM150.706 68.1021C150.962 68.1021 151.172 68.2967 151.172 68.5517C151.172 68.8068 150.962 69.0013 150.706 69.0013C150.45 69.0013 150.24 68.8067 150.24 68.5517C150.24 68.2967 150.45 68.1021 150.706 68.1021Z" fill="#0C0B13"/>
<path d="M156.297 68.6139V67.8176H163.118C163.224 67.8176 163.325 67.8596 163.4 67.9342C163.475 68.0089 163.516 68.1102 163.517 68.2158V93.5378C163.516 93.6434 163.475 93.7446 163.4 93.8193C163.325 93.894 163.224 93.9359 163.118 93.9359H155.913C155.808 93.9359 155.707 93.894 155.632 93.8193C155.557 93.7446 155.515 93.6434 155.515 93.5378V69.7359C155.515 69.6303 155.557 69.5291 155.632 69.4544C155.707 69.3797 155.808 69.3378 155.913 69.3378H159.416C159.522 69.3378 159.623 69.3797 159.698 69.4544C159.772 69.5291 159.814 69.6303 159.814 69.7359V72.0867H159.018V70.134H156.312V80.5546L157.248 80.5546V71.8989H158.044V80.5546H159.018V74.9554H159.814V80.5546L161.135 80.5546V70.2394H161.932V80.5546H162.72V68.6139H156.297Z" fill="#0C0B13"/>
<path d="M159.404 71.761C159.006 71.761 158.676 72.0869 158.676 72.487C158.676 72.8872 159.006 73.2131 159.404 73.2131C159.801 73.2131 160.131 72.8872 160.131 72.487C160.131 72.0869 159.801 71.761 159.404 71.761ZM159.404 72.2134C159.557 72.2134 159.679 72.3325 159.679 72.487C159.679 72.6416 159.557 72.7606 159.404 72.7606C159.25 72.7606 159.128 72.6416 159.128 72.487C159.128 72.3325 159.25 72.2134 159.404 72.2134Z" fill="#0C0B13"/>
<path d="M159.404 73.7529C159.006 73.7529 158.676 74.0788 158.676 74.479C158.676 74.8791 159.006 75.205 159.404 75.205C159.801 75.205 160.131 74.8791 160.131 74.479C160.131 74.0788 159.801 73.7529 159.404 73.7529ZM159.404 74.2054C159.557 74.2054 159.679 74.3244 159.679 74.479C159.679 74.6335 159.557 74.7526 159.404 74.7526C159.25 74.7526 159.128 74.6335 159.128 74.479C159.128 74.3244 159.25 74.2054 159.404 74.2054Z" fill="#0C0B13"/>
<path d="M161.53 69.1089C161.133 69.1089 160.803 69.4348 160.803 69.8349C160.803 70.2351 161.133 70.561 161.53 70.561C161.928 70.561 162.258 70.2351 162.258 69.8349C162.258 69.4348 161.928 69.1089 161.53 69.1089ZM161.53 69.5613C161.684 69.5613 161.806 69.6803 161.806 69.8349C161.806 69.9895 161.684 70.1085 161.53 70.1085C161.376 70.1085 161.255 69.9895 161.255 69.8349C161.255 69.6803 161.376 69.5613 161.53 69.5613Z" fill="#0C0B13"/>
<path d="M155.852 67.4895C155.454 67.4895 155.124 67.8154 155.124 68.2155C155.124 68.6157 155.454 68.9416 155.852 68.9416C156.249 68.9416 156.579 68.6157 156.579 68.2155C156.579 67.8154 156.249 67.4895 155.852 67.4895ZM155.852 67.9419C156.006 67.9419 156.127 68.061 156.127 68.2155C156.127 68.3701 156.006 68.4891 155.852 68.4891C155.698 68.4891 155.576 68.3701 155.576 68.2155C155.576 68.061 155.698 67.9419 155.852 67.9419Z" fill="#0C0B13"/>
<path d="M157.67 70.6746C157.272 70.6746 156.942 71.0004 156.942 71.4006C156.942 71.8007 157.272 72.1266 157.67 72.1266C158.067 72.1266 158.397 71.8007 158.397 71.4006C158.397 71.0004 158.067 70.6746 157.67 70.6746ZM157.67 71.127C157.824 71.127 157.945 71.246 157.945 71.4006C157.945 71.5551 157.824 71.6742 157.67 71.6742C157.516 71.6742 157.394 71.5551 157.394 71.4006C157.394 71.246 157.516 71.127 157.67 71.127Z" fill="#0C0B13"/>
<path fill-rule="evenodd" clip-rule="evenodd" d="M166.461 67.2509C166.536 67.1762 166.637 67.1343 166.743 67.1343H173.705V67.1493C173.723 67.1429 173.742 67.1379 173.761 67.1343H177.881C179.838 67.1343 181.571 67.4891 183.065 68.2098C184.559 68.9304 185.738 69.9816 186.572 71.3436C187.411 72.7123 187.824 74.3478 187.824 76.22C187.824 78.1097 187.398 79.737 186.529 81.0675C185.804 82.1889 184.821 83.0809 183.603 83.7332L188.629 92.9046C188.663 92.9652 188.68 93.0335 188.678 93.1026C188.677 93.1717 188.658 93.2393 188.623 93.2988C188.588 93.3583 188.537 93.4076 188.477 93.4418C188.417 93.4761 188.349 93.4941 188.28 93.4941H180.694C180.622 93.4941 180.551 93.4745 180.49 93.4376C180.428 93.4006 180.377 93.3475 180.343 93.2841L175.931 85.0561H173.761C173.656 85.0561 173.554 85.0141 173.48 84.9395C173.405 84.8648 173.363 84.7635 173.363 84.658V83.3991H167.141V85.1011H169.333C169.439 85.1011 169.54 85.143 169.615 85.2177C169.689 85.2924 169.731 85.3936 169.731 85.4992V90.6974H171.284V91.4936H169.333C169.228 91.4936 169.126 91.4517 169.052 91.377C168.977 91.3024 168.935 91.2011 168.935 91.0955V85.8973H167.141V89.1467H166.344V83.001C166.344 82.8954 166.386 82.7941 166.461 82.7194C166.536 82.6448 166.637 82.6028 166.743 82.6028H173.363V70.7016H171.917L171.915 73.4827L171.119 73.4822L171.121 70.7016H169.701V75.2797H168.905V70.3035C168.905 70.1979 168.947 70.0966 169.021 70.022C169.096 69.9473 169.197 69.9053 169.303 69.9053H173.363V67.9305H167.141V80.1485H171.119V79.5256H171.915V80.5466C171.915 80.6522 171.873 80.7534 171.798 80.8281C171.724 80.9028 171.622 80.9447 171.517 80.9447H166.743C166.637 80.9447 166.536 80.9028 166.461 80.8281C166.386 80.7534 166.344 80.6522 166.344 80.5466V67.5324C166.344 67.4268 166.386 67.3256 166.461 67.2509ZM176.223 73.4726H174.159V78.8761L176.176 78.9201C176.179 78.9201 176.925 78.9327 177.385 78.9201C177.785 78.9093 177.978 78.8969 178.324 78.7806C178.744 78.6395 178.846 78.5664 179.115 78.2163C179.468 77.7568 179.743 76.8427 179.743 76.22C179.743 75.5454 179.599 75.0383 179.337 74.6623C179.336 74.66 179.334 74.6577 179.333 74.6554C179.125 74.3431 178.85 74.1011 178.485 73.9163C177.99 73.6866 177.753 73.6156 177.278 73.5484C177.276 73.5482 177.274 73.5479 177.273 73.5476C176.954 73.4981 176.604 73.4726 176.223 73.4726Z" fill="#0C0B13"/>
<path d="M171.581 89.1354L171.589 86.919L172.386 86.922L172.379 88.7387H173.705C173.811 88.7387 173.912 88.7807 173.987 88.8554C174.061 88.93 174.103 89.0313 174.103 89.1369V93.096C174.103 93.2015 174.061 93.3028 173.987 93.3775C173.912 93.4521 173.811 93.4941 173.705 93.4941H167.372V92.6978H173.307V89.535H171.979C171.927 89.535 171.875 89.5246 171.827 89.5045C171.778 89.4844 171.734 89.455 171.697 89.4179C171.66 89.3807 171.631 89.3367 171.611 89.2882C171.591 89.2397 171.581 89.1878 171.581 89.1354Z" fill="#0C0B13"/>
<path d="M171.535 73.1411C171.046 73.1411 170.642 73.5407 170.642 74.0317C170.642 74.5228 171.046 74.9223 171.535 74.9223C172.024 74.9223 172.428 74.5228 172.428 74.0317C172.428 73.5407 172.024 73.1411 171.535 73.1411ZM171.535 73.5935C171.781 73.5935 171.976 73.7863 171.976 74.0317C171.976 74.2772 171.781 74.4699 171.535 74.4699C171.29 74.4699 171.094 74.2772 171.094 74.0317C171.094 73.7863 171.29 73.5935 171.535 73.5935Z" fill="#0C0B13"/>
<path d="M169.287 74.9241C168.798 74.9241 168.393 75.3236 168.393 75.8147C168.393 76.3057 168.798 76.7053 169.287 76.7053C169.775 76.7053 170.18 76.3058 170.18 75.8147C170.18 75.3235 169.775 74.9241 169.287 74.9241ZM169.287 75.3765C169.532 75.3765 169.728 75.5693 169.728 75.8147C169.728 76.0601 169.532 76.2529 169.287 76.2529C169.041 76.2529 168.846 76.0601 168.846 75.8147C168.846 75.5692 169.041 75.3765 169.287 75.3765Z" fill="#0C0B13"/>
<path d="M171.535 78.1335C171.046 78.1335 170.642 78.5331 170.642 79.0241C170.642 79.5152 171.046 79.9147 171.535 79.9147C172.024 79.9147 172.428 79.5152 172.428 79.0241C172.428 78.5331 172.024 78.1335 171.535 78.1335ZM171.535 78.586C171.781 78.586 171.976 78.7787 171.976 79.0241C171.976 79.2696 171.781 79.4623 171.535 79.4623C171.29 79.4623 171.094 79.2696 171.094 79.0241C171.094 78.7787 171.29 78.586 171.535 78.586Z" fill="#0C0B13"/>
<path d="M171.976 85.4336C171.487 85.4336 171.083 85.8331 171.083 86.3241C171.083 86.8153 171.487 87.2149 171.976 87.2149C172.465 87.2149 172.87 86.8153 172.87 86.3241C172.87 85.8331 172.465 85.4336 171.976 85.4336ZM171.976 85.886C172.222 85.886 172.417 86.079 172.417 86.3241C172.417 86.5695 172.222 86.7624 171.976 86.7624C171.731 86.7624 171.535 86.5695 171.535 86.3241C171.535 86.079 171.731 85.886 171.976 85.886Z" fill="#0C0B13"/>
<path d="M171.768 90.2192C171.279 90.2192 170.874 90.6187 170.874 91.1098C170.874 91.6009 171.279 92.0005 171.768 92.0005C172.257 92.0005 172.661 91.6009 172.661 91.1098C172.661 90.6187 172.256 90.2192 171.768 90.2192ZM171.768 90.6717C172.013 90.6717 172.209 90.8643 172.209 91.1098C172.209 91.3553 172.013 91.5481 171.768 91.5481C171.522 91.5481 171.327 91.3552 171.327 91.1098C171.327 90.8644 171.522 90.6717 171.768 90.6717Z" fill="#0C0B13"/>
<path d="M166.743 88.8047C166.254 88.8047 165.85 89.2042 165.85 89.6953C165.85 90.1864 166.254 90.586 166.743 90.586C167.232 90.586 167.636 90.1863 167.636 89.6953C167.636 89.2043 167.232 88.8047 166.743 88.8047ZM166.743 89.2571C166.988 89.2571 167.184 89.45 167.184 89.6953C167.184 89.9407 166.988 90.1335 166.743 90.1335C166.498 90.1335 166.302 89.9407 166.302 89.6953C166.302 89.4501 166.498 89.2571 166.743 89.2571Z" fill="#0C0B13"/>
<path d="M166.743 92.2053C166.254 92.2053 165.85 92.6047 165.85 93.0959C165.85 93.587 166.254 93.9864 166.743 93.9864C167.232 93.9864 167.636 93.587 167.636 93.0959C167.636 92.6048 167.232 92.2053 166.743 92.2053ZM166.743 92.6577C166.988 92.6577 167.184 92.8504 167.184 93.0959C167.184 93.3414 166.988 93.534 166.743 93.534C166.497 93.534 166.302 93.3413 166.302 93.0959C166.302 92.8505 166.497 92.6577 166.743 92.6577Z" fill="#0C0B13"/>
<path d="M79.9252 100.766C79.9252 101.432 79.7901 101.936 79.5198 102.278C79.2496 102.619 78.8617 102.79 78.356 102.79C77.8504 102.79 77.4614 102.619 77.1893 102.278C76.9191 101.936 76.784 101.432 76.784 100.766C76.784 100.1 76.9191 99.6006 77.1893 99.2667C77.4614 98.9328 77.8504 98.7659 78.356 98.7659C78.8617 98.7659 79.2496 98.9328 79.5198 99.2667C79.7901 99.6006 79.9252 100.1 79.9252 100.766ZM79.0595 100.766C79.0595 99.8805 78.825 99.4375 78.356 99.4375C77.8851 99.4375 77.6496 99.8805 77.6496 100.766C77.6496 101.21 77.7085 101.547 77.8262 101.777C77.9459 102.004 78.1225 102.118 78.356 102.118C78.5896 102.118 78.7652 102.004 78.8829 101.777C79.0007 101.547 79.0595 101.21 79.0595 100.766Z" fill="#0C0B13"/>
<path d="M83.7355 102.732L82.896 101.241H82.3951V102.732H81.5411V98.8267H82.9712C83.4808 98.8267 83.862 98.9261 84.1148 99.1249C84.3676 99.3237 84.4941 99.6103 84.4941 99.9847C84.4941 100.249 84.4226 100.474 84.2798 100.659C84.137 100.845 83.9392 100.975 83.6863 101.05L84.6967 102.732H83.7355ZM83.6342 100.019C83.6342 99.838 83.5744 99.7048 83.4547 99.6199C83.3351 99.5331 83.144 99.4896 82.8815 99.4896H82.3951V100.578H82.9047C83.391 100.578 83.6342 100.392 83.6342 100.019Z" fill="#0C0B13"/>
<path d="M88.979 102.197C88.51 102.592 88.0342 102.79 87.5517 102.79C87.048 102.79 86.6543 102.613 86.3705 102.26C86.0868 101.905 85.945 101.405 85.945 100.761C85.945 99.4308 86.4834 98.7659 87.5604 98.7659C87.9078 98.7659 88.1915 98.8556 88.4116 99.0351C88.6316 99.2146 88.7937 99.4867 88.8979 99.8515L88.1047 100.008C88.0024 99.6276 87.8239 99.4375 87.5691 99.4375C87.3085 99.4375 87.1165 99.5417 86.993 99.7502C86.8714 99.9586 86.8106 100.295 86.8106 100.761C86.8106 101.191 86.8752 101.523 87.0046 101.756C87.1339 101.99 87.3307 102.107 87.5952 102.107C87.6974 102.107 87.8026 102.087 87.9107 102.049C88.0207 102.01 88.1163 101.958 88.1973 101.893V101.212H87.4041V100.581H88.979V102.197Z" fill="#0C0B13"/>
<path d="M93.8403 102.732H92.9892L92.7228 101.777H91.4027L91.1363 102.732H90.2823L91.5648 98.8267H92.5607L93.8403 102.732ZM92.0627 99.3536C92.0473 99.4346 92.0183 99.5562 91.9759 99.7183C91.9353 99.8785 91.8041 100.35 91.5821 101.134H92.5433C92.3175 100.339 92.1843 99.8631 92.1438 99.7068C92.1052 99.5504 92.0782 99.4327 92.0627 99.3536Z" fill="#0C0B13"/>
<path d="M97.0167 102.732L95.905 99.8081C95.959 100.294 95.986 100.636 95.986 100.833V102.732H95.242V98.8267H96.2176L97.3554 101.829C97.3014 101.375 97.2743 101.023 97.2743 100.772V98.8267H98.0184V102.732H97.0167Z" fill="#0C0B13"/>
<path d="M99.8746 98.8267H102.526V99.4867H101.626V102.072H102.526V102.732H99.8746V102.072H100.775V99.4867H99.8746V98.8267Z" fill="#0C0B13"/>
<path d="M107.284 102.732H104.241V102.127L106.183 99.4954H104.461V98.8267H107.165V99.4202L105.222 102.063H107.284V102.732Z" fill="#0C0B13"/>
<path d="M112.116 102.732H111.265L110.998 101.777H109.678L109.412 102.732H108.558L109.84 98.8267H110.836L112.116 102.732ZM110.338 99.3536C110.323 99.4346 110.294 99.5562 110.251 99.7183C110.211 99.8785 110.08 100.35 109.858 101.134H110.819C110.593 100.339 110.46 99.8631 110.419 99.7068C110.381 99.5504 110.354 99.4327 110.338 99.3536Z" fill="#0C0B13"/>
<path d="M115.333 99.4867V102.732H114.479V99.4867H113.303V98.8267H116.508V99.4867H115.333ZM115.252 103.323C115.252 103.464 115.231 103.59 115.188 103.702C115.148 103.816 115.078 103.932 114.98 104.049H114.583C114.764 103.856 114.855 103.692 114.855 103.557H114.542V102.958H115.252V103.323Z" fill="#0C0B13"/>
<path d="M118.15 98.8267H120.802V99.4867H119.902V102.072H120.802V102.732H118.15V102.072H119.051V99.4867H118.15V98.8267Z" fill="#0C0B13"/>
<path d="M125.823 102.732H124.971L124.705 101.777H123.385L123.119 102.732H122.265L123.547 98.8267H124.543L125.823 102.732ZM124.045 99.3536C124.03 99.4346 124.001 99.5562 123.958 99.7183C123.918 99.8785 123.786 100.35 123.564 101.134H124.526C124.3 100.339 124.167 99.8631 124.126 99.7068C124.088 99.5504 124.06 99.4327 124.045 99.3536Z" fill="#0C0B13"/>
<path d="M134.775 101.6C134.775 101.971 134.633 102.262 134.35 102.474C134.068 102.685 133.675 102.79 133.171 102.79C132.718 102.79 132.348 102.694 132.062 102.503C131.777 102.312 131.593 102.034 131.512 101.67L132.337 101.563C132.382 101.744 132.475 101.888 132.615 101.994C132.756 102.098 132.949 102.15 133.194 102.15C133.449 102.15 133.637 102.11 133.759 102.029C133.882 101.948 133.944 101.821 133.944 101.649C133.944 101.522 133.89 101.415 133.782 101.328C133.674 101.239 133.517 101.17 133.31 101.12C132.895 101.019 132.602 100.932 132.43 100.859C132.26 100.784 132.124 100.7 132.022 100.607C131.92 100.514 131.84 100.406 131.785 100.283C131.73 100.157 131.703 100.018 131.703 99.8631C131.703 99.5253 131.839 99.258 132.109 99.0612C132.381 98.8643 132.739 98.7659 133.183 98.7659C133.615 98.7659 133.953 98.8518 134.196 99.0235C134.439 99.1934 134.597 99.4578 134.668 99.8168L133.84 99.9007C133.755 99.5475 133.53 99.3709 133.165 99.3709C132.961 99.3709 132.805 99.4095 132.696 99.4867C132.588 99.562 132.534 99.6711 132.534 99.8139C132.534 99.9085 132.56 99.9876 132.613 100.051C132.665 100.113 132.735 100.166 132.824 100.211C132.915 100.253 133.098 100.31 133.374 100.381C133.737 100.47 134.016 100.57 134.211 100.68C134.406 100.788 134.548 100.919 134.639 101.073C134.73 101.228 134.775 101.403 134.775 101.6Z" fill="#0C0B13"/>
<path d="M138.177 99.4867V102.732H137.323V99.4867H136.148V98.8267H139.353V99.4867H138.177Z" fill="#0C0B13"/>
<path d="M142.274 102.79C141.8 102.79 141.454 102.661 141.238 102.402C141.022 102.143 140.914 101.744 140.914 101.204V98.8267H141.768V101.195C141.768 101.533 141.806 101.772 141.883 101.913C141.963 102.052 142.101 102.121 142.297 102.121C142.498 102.121 142.644 102.047 142.735 101.898C142.825 101.75 142.871 101.506 142.871 101.166V98.8267H143.725V101.16C143.725 101.712 143.605 102.122 143.366 102.391C143.128 102.657 142.765 102.79 142.274 102.79Z" fill="#0C0B13"/>
<path d="M148.436 100.749C148.436 101.386 148.287 101.876 147.99 102.22C147.692 102.561 147.269 102.732 146.719 102.732H145.5V98.8267H146.545C147.178 98.8267 147.651 98.9859 147.964 99.3044C148.278 99.6209 148.436 100.102 148.436 100.749ZM147.576 100.749C147.576 100.311 147.493 99.9915 147.327 99.7907C147.163 99.5881 146.897 99.4867 146.531 99.4867H146.354V102.072H146.649C147.267 102.072 147.576 101.631 147.576 100.749Z" fill="#0C0B13"/>
<path d="M150.075 102.732V98.8267H152.877V99.4867H150.929V100.425H152.7V101.085H150.929V102.072H152.996V102.732H150.075Z" fill="#0C0B13"/>
<path d="M156.412 102.732L155.301 99.8081C155.355 100.294 155.382 100.636 155.382 100.833V102.732H154.638V98.8267H155.613L156.751 101.829C156.697 101.375 156.67 101.023 156.67 100.772V98.8267H157.414V102.732H156.412Z" fill="#0C0B13"/>
<path d="M161.022 99.4867V102.732H160.168V99.4867H158.992V98.8267H162.197V99.4867H161.022ZM160.941 103.323C160.941 103.464 160.92 103.59 160.877 103.702C160.837 103.816 160.767 103.932 160.669 104.049H160.272C160.453 103.856 160.544 103.692 160.544 103.557H160.231V102.958H160.941V103.323Z" fill="#0C0B13"/>
<path d="M163.839 98.8267H166.491V99.4867H165.591V102.072H166.491V102.732H163.839V102.072H164.74V99.4867H163.839V98.8267Z" fill="#0C0B13"/>
<path d="M168.564 102.732V98.8267H169.419V102.072H171.202V102.732H168.564Z" fill="#0C0B13"/>
<path d="M175.872 100.766C175.872 101.432 175.737 101.936 175.467 102.278C175.197 102.619 174.809 102.79 174.303 102.79C173.797 102.79 173.408 102.619 173.136 102.278C172.866 101.936 172.731 101.432 172.731 100.766C172.731 100.1 172.866 99.6006 173.136 99.2667C173.408 98.9328 173.797 98.7659 174.303 98.7659C174.809 98.7659 175.197 98.9328 175.467 99.2667C175.737 99.6006 175.872 100.1 175.872 100.766ZM175.006 100.766C175.006 99.8805 174.772 99.4375 174.303 99.4375C173.832 99.4375 173.597 99.8805 173.597 100.766C173.597 101.21 173.655 101.547 173.773 101.777C173.893 102.004 174.069 102.118 174.303 102.118C174.536 102.118 174.712 102.004 174.83 101.777C174.948 101.547 175.006 101.21 175.006 100.766Z" fill="#0C0B13"/>
<path d="M179.682 102.732L178.843 101.241H178.342V102.732H177.488V98.8267H178.918C179.428 98.8267 179.809 98.9261 180.062 99.1249C180.315 99.3237 180.441 99.6103 180.441 99.9847C180.441 100.249 180.37 100.474 180.227 100.659C180.084 100.845 179.886 100.975 179.633 101.05L180.644 102.732H179.682ZM179.581 100.019C179.581 99.838 179.521 99.7048 179.402 99.6199C179.282 99.5331 179.091 99.4896 178.828 99.4896H178.342V100.578H178.852C179.338 100.578 179.581 100.392 179.581 100.019Z" fill="#0C0B13"/>
<path d="M126.804 106.638C126.804 107.164 126.681 107.569 126.436 107.852C126.191 108.134 125.841 108.275 125.387 108.275H124.381V105.052H125.243C125.766 105.052 126.156 105.183 126.414 105.446C126.674 105.707 126.804 106.105 126.804 106.638ZM126.094 106.638C126.094 106.277 126.026 106.013 125.889 105.847C125.753 105.68 125.534 105.596 125.231 105.596H125.086V107.73H125.329C125.839 107.73 126.094 107.366 126.094 106.638Z" fill="#0C0B13"/>
<path d="M127.519 105.052H129.708V105.596H128.965V107.73H129.708V108.275H127.519V107.73H128.263V105.596H127.519V105.052Z" fill="#0C0B13"/>
<path d="M132.018 108.275L131.1 105.862C131.145 106.263 131.167 106.545 131.167 106.708V108.275H130.553V105.052H131.358L132.298 107.53C132.253 107.155 132.231 106.865 132.231 106.657V105.052H132.845V108.275H132.018Z" fill="#0C0B13"/>
<path d="M69.4642 110.968V112.148H71.0796V112.526H69.4642V113.819H69.0078V110.595H71.137V110.968H69.4642Z" fill="#0C0B13"/>
<path d="M73.563 113.819L73.2332 112.906H71.8878L71.5604 113.819H71.092L72.3107 110.595H72.8293L74.0266 113.819H73.563ZM72.564 110.939L72.5354 111.032L72.3705 111.539L72.0096 112.55H73.1161L72.7027 111.355L72.564 110.939Z" fill="#0C0B13"/>
<path d="M74.3902 112.191C74.3902 112.626 74.4579 112.953 74.5933 113.171C74.7303 113.388 74.939 113.496 75.2194 113.496C75.3803 113.496 75.5261 113.442 75.6567 113.333C75.7874 113.223 75.8981 113.053 75.9889 112.822L76.3689 112.977C76.1315 113.57 75.7467 113.866 75.2146 113.866C74.7956 113.866 74.473 113.722 74.2468 113.434C74.0222 113.145 73.9098 112.731 73.9098 112.191C73.9098 111.093 74.3368 110.545 75.1907 110.545C75.7308 110.545 76.102 110.811 76.3044 111.345L75.9029 111.5C75.8439 111.32 75.7515 111.179 75.6257 111.075C75.5014 110.97 75.3572 110.917 75.1931 110.917C74.9207 110.917 74.7184 111.02 74.5861 111.226C74.4555 111.431 74.3902 111.753 74.3902 112.191Z" fill="#0C0B13"/>
<path d="M78.7805 112.648C78.7805 113.073 78.6897 113.383 78.5081 113.577C78.3264 113.77 78.0349 113.866 77.6334 113.866C77.2447 113.866 76.9627 113.773 76.7875 113.587C76.6138 113.399 76.527 113.1 76.527 112.691V110.595H76.9834V112.628C76.9834 112.953 77.0296 113.18 77.122 113.307C77.216 113.433 77.3857 113.496 77.631 113.496C77.8875 113.496 78.0676 113.431 78.1711 113.3C78.2747 113.169 78.3264 112.935 78.3264 112.597V110.595H78.7805V112.648Z" fill="#0C0B13"/>
<path d="M79.3018 113.819V110.595H79.7583V113.446H81.3642V113.819H79.3018Z" fill="#0C0B13"/>
<path d="M82.9776 110.968V113.819H82.5236V110.968H81.4649V110.595H84.0363V110.968H82.9776Z" fill="#0C0B13"/>
<path d="M86.3021 113.819L85.9723 112.906H84.6269L84.2995 113.819H83.8311L85.0499 110.595H85.5685L86.7657 113.819H86.3021ZM85.3032 110.939L85.2745 111.032L85.1096 111.539L84.7488 112.55H85.8552L85.4418 111.355L85.3032 110.939Z" fill="#0C0B13"/>
<path d="M88.0733 110.968V113.819H87.6192V110.968H86.5606V110.595H89.1319V110.968H88.0733Z" fill="#0C0B13"/>
<path d="M89.3139 113.819V110.595H91.5101V110.968H89.7704V111.976H91.3667V112.344H89.7704V113.446H91.6081V113.819H89.3139Z" fill="#0C0B13"/>
<path d="M93.9456 113.819L93.6158 112.906H92.2704L91.943 113.819H91.4746L92.6934 110.595H93.212L94.4092 113.819H93.9456ZM92.9467 110.939L92.918 111.032L92.7531 111.539L92.3923 112.55H93.4987L93.0853 111.355L92.9467 110.939Z" fill="#0C0B13"/>
<path d="M99.2587 112.174C99.2587 112.702 99.1361 113.108 98.8907 113.393C98.647 113.677 98.2973 113.819 97.8416 113.819H96.9574V110.595H97.7006C98.2248 110.595 98.6151 110.726 98.8716 110.989C99.1297 111.25 99.2587 111.645 99.2587 112.174ZM98.7999 112.174C98.7999 111.754 98.7123 111.448 98.537 111.257C98.3618 111.064 98.0838 110.968 97.703 110.968H97.4139V113.446H97.801C98.1387 113.446 98.3897 113.34 98.5538 113.128C98.7179 112.916 98.7999 112.598 98.7999 112.174Z" fill="#0C0B13"/>
<path d="M99.5053 113.819V110.595H101.701V110.968H99.9617V111.976H101.558V112.344H99.9617V113.446H101.799V113.819H99.5053Z" fill="#0C0B13"/>
<path d="M104.697 110.595H106.663V110.968H105.908V113.446H106.663V113.819H104.697V113.446H105.452V110.968H104.697V110.595Z" fill="#0C0B13"/>
<path d="M108.759 113.819L107.517 111.118C107.542 111.392 107.555 111.594 107.555 111.725V113.819H107.149V110.595H107.679L108.941 113.314C108.912 113.085 108.898 112.867 108.898 112.659V110.595H109.309V113.819H108.759Z" fill="#0C0B13"/>
<path d="M111.941 113.501C111.576 113.744 111.208 113.866 110.836 113.866C110.438 113.866 110.129 113.719 109.909 113.424C109.689 113.128 109.579 112.717 109.579 112.191C109.579 111.638 109.685 111.226 109.895 110.953C110.105 110.681 110.421 110.545 110.844 110.545C111.395 110.545 111.762 110.808 111.945 111.336L111.537 111.469C111.409 111.101 111.18 110.917 110.848 110.917C110.579 110.917 110.38 111.018 110.251 111.218C110.124 111.419 110.06 111.743 110.06 112.191C110.06 113.061 110.331 113.496 110.875 113.496C110.983 113.496 111.095 113.479 111.212 113.446C111.328 113.412 111.423 113.37 111.496 113.319V112.516H110.796V112.134H111.941V113.501Z" fill="#0C0B13"/>
<path d="M112.34 110.595H114.307V110.968H113.552V113.446H114.307V113.819H112.34V113.446H113.095V110.968H112.34V110.595Z" fill="#0C0B13"/>
<path d="M116.403 113.819L115.16 111.118C115.186 111.392 115.198 111.594 115.198 111.725V113.819H114.792V110.595H115.323L116.585 113.314C116.556 113.085 116.542 112.867 116.542 112.659V110.595H116.953V113.819H116.403Z" fill="#0C0B13"/>
<path d="M117.34 113.819V110.595H119.536V110.968H117.797V111.976H119.393V112.344H117.797V113.446H119.634V113.819H117.34Z" fill="#0C0B13"/>
<path d="M121.788 113.819L120.913 112.444H120.344V113.819H119.888V110.595H121.04C121.411 110.595 121.694 110.672 121.888 110.827C122.082 110.98 122.18 111.199 122.18 111.486C122.18 111.724 122.105 111.923 121.955 112.086C121.807 112.248 121.608 112.35 121.358 112.392L122.313 113.819H121.788ZM121.721 111.493C121.721 111.138 121.479 110.96 120.994 110.96H120.344V112.084H121.013C121.241 112.084 121.416 112.033 121.537 111.931C121.659 111.829 121.721 111.683 121.721 111.493Z" fill="#0C0B13"/>
<path d="M122.531 110.595H124.498V110.968H123.743V113.446H124.498V113.819H122.531V113.446H123.286V110.968H122.531V110.595Z" fill="#0C0B13"/>
<path d="M124.984 113.819V110.595H127.18V110.968H125.44V111.976H127.036V112.344H125.44V113.446H127.278V113.819H124.984Z" fill="#0C0B13"/>
<path d="M130.175 110.595H132.142V110.968H131.386V113.446H132.142V113.819H130.175V113.446H130.93V110.968H130.175V110.595Z" fill="#0C0B13"/>
<path d="M134.238 113.819L132.995 111.118C133.021 111.392 133.033 111.594 133.033 111.725V113.819H132.627V110.595H133.158L134.419 113.314C134.391 113.085 134.376 112.867 134.376 112.659V110.595H134.787V113.819H134.238Z" fill="#0C0B13"/>
<path d="M137.476 112.174C137.476 112.702 137.354 113.108 137.108 113.393C136.864 113.677 136.515 113.819 136.059 113.819H135.175V110.595H135.918C136.442 110.595 136.833 110.726 137.089 110.989C137.347 111.25 137.476 111.645 137.476 112.174ZM137.017 112.174C137.017 111.754 136.93 111.448 136.755 111.257C136.579 111.064 136.301 110.968 135.92 110.968H135.631V113.446H136.018C136.356 113.446 136.607 113.34 136.771 113.128C136.935 112.916 137.017 112.598 137.017 112.174Z" fill="#0C0B13"/>
<path d="M139.928 112.648C139.928 113.073 139.838 113.383 139.656 113.577C139.474 113.77 139.183 113.866 138.781 113.866C138.393 113.866 138.111 113.773 137.935 113.587C137.762 113.399 137.675 113.1 137.675 112.691V110.595H138.131V112.628C138.131 112.953 138.178 113.18 138.27 113.307C138.364 113.433 138.534 113.496 138.779 113.496C139.035 113.496 139.216 113.431 139.319 113.3C139.423 113.169 139.474 112.935 139.474 112.597V110.595H139.928V112.648Z" fill="#0C0B13"/>
<path d="M142.579 112.934C142.579 113.227 142.471 113.456 142.256 113.62C142.043 113.784 141.738 113.866 141.341 113.866C140.613 113.866 140.19 113.581 140.072 113.011L140.514 112.922C140.559 113.128 140.651 113.278 140.792 113.372C140.932 113.464 141.119 113.51 141.353 113.51C141.606 113.51 141.798 113.461 141.929 113.362C142.061 113.263 142.127 113.123 142.127 112.941C142.127 112.83 142.101 112.739 142.049 112.669C141.998 112.599 141.93 112.542 141.845 112.497C141.761 112.452 141.665 112.417 141.559 112.389C141.453 112.361 141.347 112.333 141.238 112.306C140.982 112.239 140.799 112.179 140.689 112.127C140.58 112.074 140.494 112.014 140.428 111.947C140.363 111.879 140.314 111.801 140.28 111.713C140.247 111.626 140.23 111.523 140.23 111.405C140.23 111.129 140.326 110.917 140.519 110.769C140.713 110.619 140.991 110.545 141.353 110.545C141.691 110.545 141.949 110.604 142.127 110.721C142.306 110.839 142.43 111.038 142.5 111.319L142.051 111.398C142.013 111.219 141.936 111.09 141.821 111.011C141.707 110.929 141.55 110.889 141.351 110.889C140.9 110.889 140.674 111.058 140.674 111.398C140.674 111.493 140.695 111.571 140.737 111.632C140.78 111.691 140.837 111.74 140.909 111.78C140.982 111.818 141.066 111.85 141.162 111.876C141.259 111.901 141.363 111.928 141.473 111.957C141.694 112.013 141.853 112.06 141.951 112.098C142.048 112.135 142.134 112.177 142.209 112.225C142.285 112.272 142.35 112.329 142.405 112.394C142.459 112.46 142.501 112.536 142.531 112.624C142.563 112.711 142.579 112.815 142.579 112.934Z" fill="#0C0B13"/>
<path d="M144.126 110.968V113.819H143.672V110.968H142.613V110.595H145.184V110.968H144.126Z" fill="#0C0B13"/>
<path d="M147.266 113.819L146.391 112.444H145.823V113.819H145.366V110.595H146.518C146.889 110.595 147.172 110.672 147.366 110.827C147.561 110.98 147.658 111.199 147.658 111.486C147.658 111.724 147.583 111.923 147.433 112.086C147.285 112.248 147.086 112.35 146.836 112.392L147.792 113.819H147.266ZM147.199 111.493C147.199 111.138 146.957 110.96 146.473 110.96H145.823V112.084H146.492C146.72 112.084 146.894 112.033 147.015 111.931C147.138 111.829 147.199 111.683 147.199 111.493Z" fill="#0C0B13"/>
<path d="M148.01 110.595H149.976V110.968H149.221V113.446H149.976V113.819H148.01V113.446H148.765V110.968H148.01V110.595Z" fill="#0C0B13"/>
<path d="M152.546 113.819L152.216 112.906H150.871L150.543 113.819H150.075L151.294 110.595H151.812L153.009 113.819H152.546ZM151.547 110.939L151.518 111.032L151.353 111.539L150.992 112.55H152.099L151.685 111.355L151.547 110.939Z" fill="#0C0B13"/>
<path d="M153.189 113.819V110.595H153.645V113.446H155.251V113.819H153.189Z" fill="#0C0B13"/>
<path d="M157.641 113.819L157.312 112.906H155.966L155.639 113.819H155.17L156.389 110.595H156.908L158.105 113.819H157.641ZM156.642 110.939L156.614 111.032L156.449 111.539L156.088 112.55H157.195L156.781 111.355L156.642 110.939ZM156.635 110.363C156.438 110.363 156.272 110.306 156.138 110.193C156.006 110.08 155.923 109.93 155.89 109.744H156.193C156.22 109.844 156.268 109.922 156.337 109.978C156.405 110.034 156.505 110.062 156.635 110.062C156.771 110.062 156.872 110.034 156.939 109.978C157.007 109.922 157.055 109.844 157.082 109.744H157.386C157.347 109.934 157.262 110.084 157.13 110.196C156.999 110.307 156.834 110.363 156.635 110.363Z" fill="#0C0B13"/>
<path d="M162.962 112.934C162.962 113.227 162.854 113.456 162.639 113.62C162.426 113.784 162.121 113.866 161.724 113.866C160.996 113.866 160.573 113.581 160.455 113.011L160.897 112.922C160.942 113.128 161.034 113.278 161.174 113.372C161.314 113.464 161.502 113.51 161.736 113.51C161.989 113.51 162.181 113.461 162.312 113.362C162.444 113.263 162.51 113.123 162.51 112.941C162.51 112.83 162.484 112.739 162.431 112.669C162.38 112.599 162.312 112.542 162.228 112.497C162.144 112.452 162.048 112.417 161.941 112.389C161.836 112.361 161.729 112.333 161.621 112.306C161.365 112.239 161.181 112.179 161.071 112.127C160.963 112.074 160.876 112.014 160.811 111.947C160.746 111.879 160.696 111.801 160.663 111.713C160.629 111.626 160.613 111.523 160.613 111.405C160.613 111.129 160.709 110.917 160.902 110.769C161.096 110.619 161.374 110.545 161.736 110.545C162.074 110.545 162.332 110.604 162.51 110.721C162.688 110.839 162.813 111.038 162.883 111.319L162.434 111.398C162.395 111.219 162.319 111.09 162.204 111.011C162.089 110.929 161.933 110.889 161.733 110.889C161.283 110.889 161.057 111.058 161.057 111.398C161.057 111.493 161.078 111.571 161.119 111.632C161.162 111.691 161.22 111.74 161.291 111.78C161.365 111.818 161.449 111.85 161.545 111.876C161.642 111.901 161.745 111.928 161.855 111.957C162.077 112.013 162.236 112.06 162.333 112.098C162.43 112.135 162.516 112.177 162.591 112.225C162.668 112.272 162.733 112.329 162.787 112.394C162.841 112.46 162.884 112.536 162.914 112.624C162.946 112.711 162.962 112.815 162.962 112.934ZM161.987 114.306C161.987 114.445 161.969 114.56 161.934 114.653C161.899 114.747 161.85 114.831 161.786 114.906H161.506C161.656 114.747 161.731 114.595 161.731 114.452H161.521V114.053H161.987V114.306Z" fill="#0C0B13"/>
<path d="M163.297 110.595H165.263V110.968H164.508V113.446H165.263V113.819H163.297V113.446H164.052V110.968H163.297V110.595Z" fill="#0C0B13"/>
<path d="M170.197 113.819L169.322 112.444H168.753V113.819H168.297V110.595H169.449C169.82 110.595 170.103 110.672 170.297 110.827C170.491 110.98 170.588 111.199 170.588 111.486C170.588 111.724 170.514 111.923 170.364 112.086C170.216 112.248 170.017 112.35 169.766 112.392L170.722 113.819H170.197ZM170.13 111.493C170.13 111.138 169.887 110.96 169.403 110.96H168.753V112.084H169.422C169.65 112.084 169.825 112.033 169.946 111.931C170.068 111.829 170.13 111.683 170.13 111.493Z" fill="#0C0B13"/>
<path d="M173.148 112.191C173.148 112.728 173.042 113.141 172.83 113.431C172.62 113.721 172.317 113.866 171.922 113.866C171.526 113.866 171.223 113.724 171.014 113.439C170.806 113.153 170.701 112.738 170.701 112.191C170.701 111.654 170.805 111.246 171.012 110.965C171.219 110.685 171.524 110.545 171.927 110.545C172.321 110.545 172.622 110.683 172.833 110.96C173.043 111.236 173.148 111.646 173.148 112.191ZM172.668 112.191C172.668 111.342 172.421 110.917 171.927 110.917C171.43 110.917 171.181 111.342 171.181 112.191C171.181 112.621 171.244 112.946 171.37 113.166C171.496 113.386 171.681 113.496 171.925 113.496C172.184 113.496 172.373 113.384 172.491 113.161C172.609 112.938 172.668 112.615 172.668 112.191Z" fill="#0C0B13"/>
<path d="M175.758 112.91C175.758 113.197 175.649 113.42 175.431 113.58C175.213 113.739 174.909 113.819 174.52 113.819H173.392V110.595H174.377C175.167 110.595 175.562 110.855 175.562 111.376C175.562 111.571 175.505 111.733 175.39 111.864C175.275 111.994 175.119 112.08 174.922 112.119C175.188 112.148 175.393 112.233 175.538 112.375C175.685 112.517 175.758 112.695 175.758 112.91ZM175.103 111.434C175.103 111.263 175.043 111.142 174.922 111.07C174.802 110.997 174.622 110.96 174.382 110.96H173.849V111.955H174.386C174.864 111.955 175.103 111.781 175.103 111.434ZM175.297 112.87C175.297 112.688 175.226 112.55 175.084 112.454C174.943 112.358 174.731 112.311 174.451 112.311H173.849V113.453H174.484C174.763 113.453 174.968 113.405 175.099 113.31C175.231 113.212 175.297 113.066 175.297 112.87Z" fill="#0C0B13"/>
<path d="M178.244 112.191C178.244 112.728 178.138 113.141 177.926 113.431C177.716 113.721 177.413 113.866 177.018 113.866C176.621 113.866 176.319 113.724 176.11 113.439C175.901 113.153 175.797 112.738 175.797 112.191C175.797 111.654 175.9 111.246 176.107 110.965C176.315 110.685 176.62 110.545 177.023 110.545C177.416 110.545 177.718 110.683 177.928 110.96C178.139 111.236 178.244 111.646 178.244 112.191ZM177.764 112.191C177.764 111.342 177.517 110.917 177.023 110.917C176.526 110.917 176.277 111.342 176.277 112.191C176.277 112.621 176.34 112.946 176.466 113.166C176.592 113.386 176.777 113.496 177.02 113.496C177.28 113.496 177.469 113.384 177.587 113.161C177.705 112.938 177.764 112.615 177.764 112.191Z" fill="#0C0B13"/>
<path d="M179.795 110.968V113.819H179.341V110.968H178.283V110.595H180.854V110.968H179.795Z" fill="#0C0B13"/>
<path d="M181.131 110.595H183.098V110.968H182.343V113.446H183.098V113.819H181.131V113.446H181.887V110.968H181.131V110.595Z" fill="#0C0B13"/>
<path d="M183.947 112.191C183.947 112.626 184.015 112.953 184.15 113.171C184.287 113.388 184.496 113.496 184.776 113.496C184.937 113.496 185.083 113.442 185.214 113.333C185.344 113.223 185.455 113.053 185.546 112.822L185.926 112.977C185.688 113.57 185.304 113.866 184.771 113.866C184.352 113.866 184.03 113.722 183.804 113.434C183.579 113.145 183.467 112.731 183.467 112.191C183.467 111.093 183.894 110.545 184.747 110.545C185.288 110.545 185.659 110.811 185.861 111.345L185.46 111.5C185.401 111.32 185.308 111.179 185.182 111.075C185.058 110.97 184.914 110.917 184.75 110.917C184.477 110.917 184.275 111.02 184.143 111.226C184.012 111.431 183.947 111.753 183.947 112.191Z" fill="#0C0B13"/>
<path d="M188.215 113.819L187.886 112.906H186.54L186.213 113.819H185.744L186.963 110.595H187.482L188.679 113.819H188.215ZM187.216 110.939L187.188 111.032L187.023 111.539L186.662 112.55H187.768L187.355 111.355L187.216 110.939ZM187.209 110.363C187.012 110.363 186.846 110.306 186.712 110.193C186.58 110.08 186.497 109.93 186.464 109.744H186.767C186.794 109.844 186.842 109.922 186.911 109.978C186.979 110.034 187.079 110.062 187.209 110.062C187.345 110.062 187.446 110.034 187.513 109.978C187.581 109.922 187.629 109.844 187.656 109.744H187.96C187.921 109.934 187.836 110.084 187.704 110.196C187.573 110.307 187.408 110.363 187.209 110.363Z" fill="#0C0B13"/>
</svg>
