<svg xmlns="http://www.w3.org/2000/svg" width="202" height="202" viewBox="0 0 202 202" fill="none">
  <path fill-rule="evenodd" clip-rule="evenodd" d="M8.8851 68.4194H17.9515V87.2437H27.5619V96.4749H36.6284V105.344H55.1239V96.4749H63.8276V87.2437H77.7899C77.4273 84.227 76.9196 78.1936 77.7899 78.1936H91.9336V68.4194H100.637V9.23118H110.429V0H183.504V9.23118H192.571V51.043H146.513V59.7312H173.713V68.4194H137.447V87.2437H155.58V105.344H146.513V96.4749H137.447V128.151H128.562V142.45H118.952V151.319H110.429V188.063H118.952V197.475H100.637V169.962H91.9336V160.55H82.1418V169.962H73.2567V178.651H63.8276V188.063H73.2567V197.475H55.1239V160.55H45.5135V151.319H36.6284V142.45H27.5619V132.857H17.9515V123.987H8.8851V68.4194ZM128.562 13.9373H119.133V22.9875H128.562V13.9373Z" fill="#FFF158"/>
  <path d="M128.562 165.437H202V169.962H128.562V165.437Z" fill="#FFF158"/>
  <path d="M188.219 192.588H192.571V197.475H188.219V192.588Z" fill="#FFF158"/>
  <path d="M27.5619 183.538H45.5135V188.063H27.5619V183.538Z" fill="#FFF158"/>
  <path d="M0 165.437H36.6284V169.962H0V165.437Z" fill="#FFF158"/>
  <path d="M0 197.475H17.9515V202H0V197.475Z" fill="#FFF158"/>
</svg>