<svg width="147" height="124" viewBox="0 0 147 124" fill="none" xmlns="http://www.w3.org/2000/svg">
<path d="M39.83 54H21.2H20.51V59.52H14.3V79.53H20.51V87.81H39.83V78.84H48.11V59.52H39.83V54Z" fill="#7DC9FF" stroke="#125292"/>
<path d="M52.94 92.6399H8.78V100.92H0.5V123H61.22V100.92H52.94V92.6399Z" fill="#7DC9FF" stroke="#125292"/>
<path d="M14.3 121.62H1.88V102.3H10.16V94.02H51.56V97.47H23.27V103.68H14.3V121.62Z" fill="#3988C0" stroke="#3988C0"/>
<path d="M119.87 54H101.24H100.55V59.52H94.34V79.53H100.55V87.81H119.87V78.84H128.15V59.52H119.87V54Z" fill="#7DC9FF" stroke="#125292"/>
<path d="M132.98 92.6399H88.82V100.92H80.54V123H141.26V100.92H132.98V92.6399Z" fill="#7DC9FF" stroke="#125292"/>
<path d="M94.34 121.62H81.92V102.3H90.2V94.02H131.6V97.47H103.31V103.68H94.34V121.62Z" fill="#3988C0" stroke="#3988C0"/>
<path d="M3.70312 32V8.73438H24.0625V11.6406H9.52344V17.4609H18.25V20.3672H9.52344V29.0938H24.0625V32H3.70312ZM34.2422 32V29.0938H31.3281V26.1875H28.4219V14.5469H31.3281V11.6406H34.2422V8.73438H45.875V11.6406H48.7812V14.5469H42.9688V11.6406H37.1484V14.5469H34.2422V26.1875H37.1484V29.0938H42.9688V26.1875H48.7812V29.0938H45.875V32H34.2422ZM53.1406 32V8.73438H58.9609V17.4609H67.6875V8.73438H73.5V32H67.6875V20.3672H58.9609V32H53.1406ZM77.8594 32V29.0938H83.6797V11.6406H77.8594V8.73438H95.3125V11.6406H89.4922V29.0938H95.3125V32H77.8594ZM114.219 17.4609V11.6406H105.492V17.4609H114.219ZM99.6719 32V8.73438H117.125V11.6406H120.031V17.4609H117.125V20.3672H105.492V32H99.6719ZM138.938 20.3672V14.5469H136.023V11.6406H133.117V14.5469H130.211V20.3672H138.938ZM124.391 32V14.5469H127.297V11.6406H130.211V8.73438H138.938V11.6406H141.844V14.5469H144.75V32H138.938V23.2734H130.211V32H124.391Z" fill="#0449AA"/>
<path d="M130.618 6V3.5H128.5V1H130.618V3.5H138.382V1H140.5V3.5H138.382V6H130.618Z" fill="#0449AA"/>
<path d="M130.618 3.5V6H138.382V3.5M130.618 3.5H138.382M130.618 3.5H128.5V1H130.618V3.5ZM138.382 3.5H140.5V1H138.382V3.5Z" stroke="#0449AA"/>
</svg>
