<svg width="132" height="177" viewBox="0 0 132 177" fill="none" xmlns="http://www.w3.org/2000/svg">
<path d="M103.365 27.145L112.608 25.8807L129.257 154.486L121.863 155.497L120.725 147.179L115.179 147.937L116.191 155.332L111.569 155.964L112.707 164.283L99.7666 166.053L98.6288 157.734L94.9315 158.239L93.6672 148.996L87.1971 149.881L88.5878 160.049L83.042 160.807L84.0534 168.202L72.9617 169.719L71.6974 160.476L66.1516 161.234L65.393 155.689L60.7714 156.321L61.9093 164.639L55.4391 165.524L56.3241 171.995L44.3081 173.638L43.4231 167.168L36.953 168.053L35.8151 159.734L30.2693 160.493L31.4071 168.812L26.7856 169.444L27.6706 175.914L22.1248 176.673L5.68904 56.5125L11.2349 55.7539L9.08561 40.0407L13.7071 39.4085L12.6957 32.0141L24.7117 30.3705L23.4474 21.1274L35.4634 19.4839L34.1991 10.2408L76.7173 4.42506L77.9816 13.6681L91.8462 11.7717L92.7312 18.2419L101.974 16.9776L103.365 27.145Z" fill="#3885EF"/>
<path fill-rule="evenodd" clip-rule="evenodd" d="M52.6624 55.7369L58.2083 54.9783L61.8747 81.7832L37.8427 85.0704L36.5784 75.8273L48.5944 74.1837L46.4451 58.4705L34.4291 60.1141L33.0384 49.9467L51.5246 47.4181L52.6624 55.7369Z" fill="white"/>
<path fill-rule="evenodd" clip-rule="evenodd" d="M52.6624 55.7369L58.2083 54.9783L61.8747 81.7832L37.8427 85.0704L36.5784 75.8273L48.5944 74.1837L46.4451 58.4705L34.4291 60.1141L33.0384 49.9467L51.5246 47.4181L52.6624 55.7369Z" fill="white" fill-opacity="0.2"/>
<path d="M46.4451 58.4705L48.5944 74.1837L36.5784 75.8273L34.4291 60.1141L46.4451 58.4705Z" fill="#33283C"/>
<path d="M46.4451 58.4705L48.5944 74.1837L36.5784 75.8273L34.4291 60.1141L46.4451 58.4705Z" fill="#0057D2"/>
<path d="M33.0384 49.9467L51.5246 47.4181L52.6624 55.7369L58.2083 54.9783L61.8747 81.7832L37.8427 85.0704L36.5784 75.8273M33.0384 49.9467L36.5784 75.8273M33.0384 49.9467L34.4291 60.1141M36.5784 75.8273L48.5944 74.1837L46.4451 58.4705L34.4291 60.1141M36.5784 75.8273L34.4291 60.1141" stroke="#3F77BA"/>
<path fill-rule="evenodd" clip-rule="evenodd" d="M91.4837 50.4268L97.0295 49.6683L100.696 76.4732L76.664 79.7603L75.3997 70.5173L87.4157 68.8737L85.2664 53.1604L73.2504 54.804L71.8597 44.6366L90.3458 42.1081L91.4837 50.4268Z" fill="white"/>
<path fill-rule="evenodd" clip-rule="evenodd" d="M91.4837 50.4268L97.0295 49.6683L100.696 76.4732L76.664 79.7603L75.3997 70.5173L87.4157 68.8737L85.2664 53.1604L73.2504 54.804L71.8597 44.6366L90.3458 42.1081L91.4837 50.4268Z" fill="white" fill-opacity="0.2"/>
<path d="M85.2664 53.1604L87.4157 68.8737L75.3997 70.5173L73.2504 54.804L85.2664 53.1604Z" fill="#33283C"/>
<path d="M85.2664 53.1604L87.4157 68.8737L75.3997 70.5173L73.2504 54.804L85.2664 53.1604Z" fill="#0057D2"/>
<path d="M71.8597 44.6366L90.3458 42.1081L91.4837 50.4268L97.0295 49.6683L100.696 76.4732L76.664 79.7603L75.3997 70.5173M71.8597 44.6366L75.3997 70.5173M71.8597 44.6366L73.2504 54.804M75.3997 70.5173L87.4157 68.8737L85.2664 53.1604L73.2504 54.804M75.3997 70.5173L73.2504 54.804" stroke="#3F77BA"/>
</svg>
