<svg xmlns="http://www.w3.org/2000/svg" width="280" height="203" viewBox="0 0 280 203" fill="none">
  <path fill-rule="evenodd" clip-rule="evenodd" d="M0 178.629H24.6245V127.671H50.9091V178.629H76.6403V153.427H203.083V178.629H228.538V127.671H254.269V178.629H280V102.746H254.269V76.9904H228.538V50.9577H203.083V26.8636H201.146H179.012V50.9577H101.265V26.8636H76.6403V50.9577H50.9091V76.9904H24.6245V102.746H0V178.629ZM76.6403 102.746V76.9904H101.265V102.746H76.6403ZM203.083 76.9904H179.012V102.746H203.083V76.9904Z" fill="#EEE367"/>
  <path d="M126.719 178.629H76.6403V203H126.719V178.629Z" fill="#EEE367"/>
  <path d="M203.083 203V178.629H153.557V203H203.083Z" fill="#EEE367"/>
  <path d="M50.9091 26.8636H76.6403V0H50.9091V26.8636Z" fill="#EEE367"/>
  <path d="M203.083 0V26.8636H228.538V0H203.083Z" fill="#EEE367"/>
</svg>
