<svg width="271" height="58" viewBox="0 0 271 58" fill="none" xmlns="http://www.w3.org/2000/svg">
<path d="M0 56.6031V3.20395H9.91697V48.2118H37.8371V56.6031H0Z" fill="white"/>
<path d="M63.5258 57.137C58.9996 57.137 55.0328 56.2471 51.6255 54.4671C48.269 52.6363 45.6499 50.1443 43.7682 46.9912C41.9374 43.8381 41.0219 40.2528 41.0219 36.2351C41.0219 32.1666 41.9119 28.5812 43.6919 25.479C45.5227 22.3259 48.0147 19.8594 51.1678 18.0794C54.3717 16.2994 58.0079 15.4095 62.0764 15.4095C66.0432 15.4095 69.5777 16.274 72.68 18.0031C75.7822 19.7322 78.2233 22.1733 80.0033 25.3264C81.7832 28.4795 82.6732 32.192 82.6732 36.464C82.6732 36.8708 82.6478 37.3285 82.597 37.8371C82.597 38.3456 82.5715 38.8288 82.5207 39.2865H48.5741V32.9549H77.4859L73.748 34.9383C73.7988 32.5989 73.3157 30.5392 72.2986 28.7592C71.2814 26.9793 69.8829 25.5807 68.1029 24.5636C66.3738 23.5465 64.365 23.0379 62.0764 23.0379C59.737 23.0379 57.6774 23.5465 55.8974 24.5636C54.1683 25.5807 52.7952 27.0047 51.778 28.8355C50.8118 30.6155 50.3286 32.726 50.3286 35.1671V36.6928C50.3286 39.1339 50.8881 41.2953 52.0069 43.177C53.1257 45.0587 54.7023 46.5081 56.7365 47.5252C58.7708 48.5423 61.1102 49.0509 63.7547 49.0509C66.0432 49.0509 68.1029 48.6949 69.9337 47.9829C71.7646 47.2709 73.392 46.1521 74.8159 44.6264L79.927 50.5003C78.0962 52.6363 75.7822 54.2891 72.9851 55.4588C70.2389 56.5776 67.0858 57.137 63.5258 57.137Z" fill="white"/>
<path d="M101.92 56.6031L84.451 15.8672H94.368L109.396 51.7971H104.514L120.076 15.8672H129.23L111.761 56.6031H101.92Z" fill="white"/>
<path d="M153.22 57.137C148.693 57.137 144.727 56.2471 141.319 54.4671C137.963 52.6363 135.344 50.1443 133.462 46.9912C131.631 43.8381 130.716 40.2528 130.716 36.2351C130.716 32.1666 131.606 28.5812 133.386 25.479C135.217 22.3259 137.708 19.8594 140.862 18.0794C144.066 16.2994 147.702 15.4095 151.77 15.4095C155.737 15.4095 159.272 16.274 162.374 18.0031C165.476 19.7322 167.917 22.1733 169.697 25.3264C171.477 28.4795 172.367 32.192 172.367 36.464C172.367 36.8708 172.342 37.3285 172.291 37.8371C172.291 38.3456 172.265 38.8288 172.214 39.2865H138.268V32.9549H167.18L163.442 34.9383C163.493 32.5989 163.009 30.5392 161.992 28.7592C160.975 26.9793 159.577 25.5807 157.797 24.5636C156.068 23.5465 154.059 23.0379 151.77 23.0379C149.431 23.0379 147.371 23.5465 145.591 24.5636C143.862 25.5807 142.489 27.0047 141.472 28.8355C140.506 30.6155 140.022 32.726 140.022 35.1671V36.6928C140.022 39.1339 140.582 41.2953 141.701 43.177C142.82 45.0587 144.396 46.5081 146.43 47.5252C148.465 48.5423 150.804 49.0509 153.448 49.0509C155.737 49.0509 157.797 48.6949 159.628 47.9829C161.458 47.2709 163.086 46.1521 164.51 44.6264L169.621 50.5003C167.79 52.6363 165.476 54.2891 162.679 55.4588C159.933 56.5776 156.78 57.137 153.22 57.137Z" fill="white"/>
<path d="M181.527 56.6031V0H191.062V56.6031H181.527Z" fill="white"/>
<path d="M264.248 55.2684C267.013 55.2684 269.254 53.027 269.254 50.2622V21.9702H202.505V50.2622C202.505 53.027 204.746 55.2684 207.511 55.2684H264.248Z" fill="white"/>
<path d="M202.505 21.9702V50.2622C202.505 53.027 204.746 55.2684 207.511 55.2684H264.248C267.013 55.2684 269.254 53.027 269.254 50.2622V21.9702M202.505 21.9702V6.87543C202.505 4.1106 204.746 1.86926 207.511 1.86926H264.248C267.013 1.86926 269.254 4.1106 269.254 6.87543V21.9702M202.505 21.9702H269.254" stroke="white" stroke-width="2" stroke-linejoin="round"/>
<path d="M209.18 11.8817C209.18 10.0385 210.674 8.54423 212.518 8.54423C214.361 8.54423 215.855 10.0385 215.855 11.8817C215.855 13.7249 214.361 15.2191 212.518 15.2191C210.674 15.2191 209.18 13.7249 209.18 11.8817Z" fill="white"/>
<path d="M219.669 11.8817C219.669 10.0385 221.163 8.54423 223.006 8.54423C224.85 8.54423 226.344 10.0385 226.344 11.8817C226.344 13.7249 224.85 15.2191 223.006 15.2191C221.163 15.2191 219.669 13.7249 219.669 11.8817Z" fill="white"/>
<path d="M219.374 45.9425C217.36 45.9425 215.78 45.3761 214.633 44.2432C213.5 43.1104 212.933 41.4741 212.933 39.3343V31.0479H215.661V39.2294C215.661 40.7399 215.982 41.8377 216.626 42.523C217.283 43.2083 218.206 43.551 219.395 43.551C220.584 43.551 221.5 43.2083 222.143 42.523C222.786 41.8377 223.108 40.7399 223.108 39.2294V31.0479H225.793V39.3343C225.793 41.4741 225.22 43.1104 224.073 44.2432C222.94 45.3761 221.374 45.9425 219.374 45.9425Z" fill="black"/>
<path d="M229.612 45.7327V31.0479H235.654C236.955 31.0479 238.067 31.2577 238.99 31.6773C239.927 32.0969 240.647 32.6982 241.15 33.4814C241.654 34.2646 241.906 35.1946 241.906 36.2715C241.906 37.3484 241.654 38.2784 241.15 39.0616C240.647 39.8448 239.927 40.4462 238.99 40.8657C238.067 41.2853 236.955 41.4951 235.654 41.4951H231.123L232.34 40.2154V45.7327H229.612ZM232.34 40.5091L231.123 39.1875H235.528C236.731 39.1875 237.633 38.9358 238.235 38.4323C238.85 37.9148 239.158 37.1946 239.158 36.2715C239.158 35.3345 238.85 34.6142 238.235 34.1108C237.633 33.6073 236.731 33.3555 235.528 33.3555H231.123L232.34 32.0129V40.5091Z" fill="black"/>
<path d="M230.158 11.8817C230.158 10.0385 231.652 8.54423 233.495 8.54423C235.339 8.54423 236.833 10.0385 236.833 11.8817C236.833 13.7249 235.339 15.2191 233.495 15.2191C231.652 15.2191 230.158 13.7249 230.158 11.8817Z" fill="white"/>
<path fill-rule="evenodd" clip-rule="evenodd" d="M246.838 29.8268C246.915 29.7635 247.009 29.7237 247.108 29.7122C247.208 29.7008 247.308 29.718 247.398 29.762L258.582 35.242C258.676 35.2879 258.754 35.3608 258.806 35.4515C258.857 35.5422 258.881 35.6463 258.873 35.7505C258.865 35.8547 258.826 35.954 258.76 36.0356C258.695 36.1172 258.607 36.1773 258.507 36.2082L255.187 37.2435L258.262 41.0061C258.349 41.113 258.391 41.2502 258.377 41.3876C258.363 41.525 258.296 41.6513 258.189 41.7389L256.28 43.2993C256.174 43.3868 256.036 43.4282 255.899 43.4146C255.762 43.4009 255.635 43.3333 255.548 43.2266L252.468 39.4654L250.803 42.5092C250.753 42.6009 250.676 42.6754 250.583 42.723C250.49 42.7707 250.385 42.7893 250.282 42.7765C250.178 42.7637 250.081 42.72 250.002 42.6511C249.924 42.5822 249.867 42.4913 249.841 42.3902L246.665 30.363C246.639 30.2664 246.642 30.1645 246.673 30.0694C246.704 29.9744 246.761 29.8901 246.838 29.8268ZM247.964 31.2002L250.516 40.8625L251.925 38.2872C251.966 38.2123 252.024 38.1486 252.096 38.1017C252.167 38.0549 252.249 38.0262 252.334 38.0184C252.419 38.0105 252.504 38.0237 252.583 38.0566C252.662 38.0896 252.731 38.1415 252.785 38.2076L256.024 42.1632L257.124 41.2623L253.89 37.3057C253.836 37.2396 253.799 37.1614 253.782 37.0777C253.766 36.9941 253.77 36.9076 253.794 36.8259C253.819 36.7441 253.863 36.6697 253.923 36.609C253.983 36.5484 254.057 36.5034 254.138 36.478L256.947 35.6026L247.964 31.2002Z" fill="black"/>
</svg>
