<svg width="388" height="51" viewBox="0 0 388 51" fill="none" xmlns="http://www.w3.org/2000/svg">
<path d="M0.5 43V6H7.7V14.265H13.7V18.7586H18.5V21.3103H24.5V28.9655H18.5V31.5172H13.7V36.6207H7.7V43H0.5Z" fill="#0C0B13" stroke="#FFF582"/>
<path d="M387.5 45V8H380.3V16.265H374.3V20.7586H369.5V23.3103H363.5V30.9655H369.5V33.5172H374.3V38.6207H380.3V45H387.5Z" fill="#0C0B13" stroke="#FFF582"/>
<path d="M54.957 40V36.3672H51.3242V32.7344H58.5996V36.3672H69.5078V25.459H54.957V21.8262H51.3242V14.5508H54.957V10.918H73.1406V14.5508H76.7734V18.1836H69.5078V14.5508H58.5996V21.8262H73.1406V25.459H76.7734V36.3672H73.1406V40H54.957ZM91.3145 40V14.5508H82.2227V10.918H107.672V14.5508H98.5898V40H91.3145ZM131.305 25.459V18.1836H127.662V14.5508H124.029V18.1836H120.396V25.459H131.305ZM113.121 40V18.1836H116.754V14.5508H120.396V10.918H131.305V14.5508H134.938V18.1836H138.57V40H131.305V29.0918H120.396V40H113.121ZM162.203 21.8262V14.5508H151.295V21.8262H162.203ZM144.02 40V10.918H165.836V14.5508H169.469V21.8262H165.836V25.459H169.469V40H162.203V25.459H151.295V40H144.02ZM184.01 40V14.5508H174.918V10.918H200.367V14.5508H191.285V40H184.01ZM227.623 40V36.3672H223.98V32.7344H220.348V18.1836H223.98V14.5508H227.623V10.918H242.164V14.5508H245.797V18.1836H238.531V14.5508H231.256V18.1836H227.623V32.7344H231.256V36.3672H238.531V27.2754H231.256V23.6426H245.797V40H227.623ZM269.43 25.459V18.1836H265.787V14.5508H262.154V18.1836H258.521V25.459H269.43ZM251.246 40V18.1836H254.879V14.5508H258.521V10.918H269.43V14.5508H273.062V18.1836H276.695V40H269.43V29.0918H258.521V40H251.246ZM282.145 40V10.918H285.777V14.5508H289.42V18.1836H293.053V21.8262H296.686V18.1836H300.328V14.5508H303.961V10.918H307.594V40H300.328V25.459H296.686V29.0918H293.053V25.459H289.42V40H282.145ZM313.043 40V10.918H338.492V14.5508H320.318V21.8262H331.227V25.459H320.318V36.3672H338.492V40H313.043Z" fill="#0C0B13"/>
</svg>
